<?xml version="1.0" encoding="UTF-8"?>
<svg xmlns="http://www.w3.org/2000/svg" xmlns:xlink="http://www.w3.org/1999/xlink" version="1.2" >
<font id="Futura Heavy BT">
<font-face  font-family="Futura" units-per-em="2048" ascent="1556" descent="492" font-style="normal" font-weight="400" font-stretch="normal" cap-height="1536" x-height="1024" underline-position="-223" underline-thickness="190" />
<missing-glyph  horiz-adv-x="1229" d="M102 -362 L102 1444 L1126 1444 L1126 -362 L102 -362 Z M217 -248 L1012 -248 L1012 1329 L217 1329 L217 -248 Z " />
<glyph glyph-name="space" unicode="&#x20;" horiz-adv-x="629" d="" />
<glyph glyph-name="exclam" unicode="&#x21;" horiz-adv-x="688" d="M201 457 L201 1497 L485 1497 L485 457 L201 457 Z M172 133 Q172 204 222 253.5 Q272 303 344 303 Q415 303 464.5 254 Q514 205 514 133 Q514 61 464.5 11 Q415 -39 344 -39 Q273 -39 222.5 12 Q172 63 172 133 Z " />
<glyph glyph-name="quotedbl" unicode="&#x22;" horiz-adv-x="678" d="M406 1438 L598 1438 L598 879 L406 879 L406 1438 Z M80 1438 L272 1438 L272 879 L80 879 L80 1438 Z " />
<glyph glyph-name="numbersign" unicode="&#x23;" horiz-adv-x="1575" d="M709 848 L621 604 L872 604 L958 848 L709 848 Z M709 1464 L930 1464 L784 1049 L1026 1049 L1174 1464 L1395 1464 L1247 1049 L1530 1049 L1456 848 L1176 848 L1092 606 L1382 606 L1311 406 L1020 406 L872 -10 L651 -10 L799 406 L555 406 L406 -10 L186 -10 L332 406 L45 406 L121 606 L403 606 L489 848 L190 848 L264 1049 L561 1049 L709 1464 Z " />
<glyph glyph-name="dollar" unicode="&#x24;" horiz-adv-x="1255" d="M111 219 L285 406 Q321 326 392 283 Q463 240 559 240 L559 629 Q325 728 228 829.5 Q131 931 131 1071 Q131 1230 257 1339 Q383 1448 590 1464 L590 1579 L684 1579 L684 1463 Q800 1459 889 1415 Q978 1371 1047 1282 L862 1114 Q828 1170 786.5 1198.5 Q745 1227 684 1235 L684 868 Q896 783 996 677 Q1096 571 1096 432 Q1096 255 977 139.5 Q858 24 655 6 L655 -152 L559 -152 L559 4 Q398 9 283.5 64 Q169 119 111 219 Z M590 1235 Q519 1220 477.5 1176.5 Q436 1133 436 1075 Q436 1021 474.5 978 Q513 935 590 903 L590 1235 Z M655 250 Q724 269 763.5 315.5 Q803 362 803 424 Q803 478 769 516 Q735 554 655 588 L655 250 Z " />
<glyph glyph-name="percent" unicode="&#x25;" horiz-adv-x="1731" d="M741 1075 Q741 884 648.5 777 Q556 670 391 670 Q225 670 132 776.5 Q39 883 39 1075 Q39 1264 132.5 1371.5 Q226 1479 391 1479 Q558 1479 649.5 1373 Q741 1267 741 1075 Z M254 1075 Q254 950 290 881.5 Q326 813 391 813 Q459 813 493.5 879.5 Q528 946 528 1075 Q528 1202 493 1268.5 Q458 1335 391 1335 Q325 1335 289.5 1268 Q254 1201 254 1075 Z M510 -39 L360 -39 L1217 1479 L1366 1479 L510 -39 Z M1692 367 Q1692 176 1598.5 68.5 Q1505 -39 1339 -39 Q1173 -39 1080 68 Q987 175 987 367 Q987 556 1080.5 663 Q1174 770 1339 770 Q1507 770 1599.5 664.5 Q1692 559 1692 367 Z M1202 365 Q1202 240 1238 172 Q1274 104 1339 104 Q1407 104 1443 171.5 Q1479 239 1479 367 Q1479 493 1443.5 560 Q1408 627 1341 627 Q1275 627 1238.5 558.5 Q1202 490 1202 365 Z " />
<glyph glyph-name="ampersand" unicode="&#x26;" horiz-adv-x="1464" d="M614 934 L666 965 Q723 1000 751.5 1043.5 Q780 1087 780 1139 Q780 1202 741.5 1241 Q703 1280 643 1280 Q578 1280 538 1240.5 Q498 1201 498 1137 Q498 1108 509.5 1078 Q521 1048 543 1022 L614 934 Z M819 317 L543 649 L512 627 Q437 572 402 518 Q367 464 367 403 Q367 323 428 264 Q489 205 573 205 Q649 205 712 233.5 Q775 262 819 317 Z M1094 0 L969 143 Q872 48 778.5 6.5 Q685 -35 567 -35 Q351 -35 223.5 80 Q96 195 96 385 Q96 510 172.5 616 Q249 722 406 815 Q323 897 288.5 972 Q254 1047 254 1135 Q254 1284 360.5 1373 Q467 1462 647 1462 Q820 1462 922 1378 Q1024 1294 1024 1153 Q1024 1056 964.5 974 Q905 892 756 791 L1004 504 Q1068 565 1120 620.5 Q1172 676 1217 731 L1378 559 Q1327 502 1273 444.5 Q1219 387 1155 324 L1423 0 L1094 0 Z " />
<glyph glyph-name="quotesingle" unicode="&#x27;" horiz-adv-x="352" d="M80 1438 L272 1438 L272 879 L80 879 L80 1438 Z " />
<glyph glyph-name="parenleft" unicode="&#x28;" horiz-adv-x="688" d="M627 1466 Q519 1250 467.5 1019.5 Q416 789 416 528 Q416 241 467 13.5 Q518 -214 627 -416 L401 -469 Q284 -250 224 -2 Q164 246 164 514 Q164 808 222.5 1053.5 Q281 1299 401 1516 L627 1466 Z " />
<glyph glyph-name="parenright" unicode="&#x29;" horiz-adv-x="688" d="M61 1466 L287 1516 Q406 1304 465 1053.5 Q524 803 524 514 Q524 246 464 -2 Q404 -250 287 -469 L61 -416 Q170 -214 221 13.5 Q272 241 272 528 Q272 791 220.5 1020 Q169 1249 61 1466 Z " />
<glyph glyph-name="asterisk" unicode="&#x2a;" horiz-adv-x="973" d="M215 834 L129 971 L362 1092 L133 1212 L215 1350 L424 1200 L410 1464 L571 1464 L557 1204 L762 1350 L842 1212 L618 1090 L838 975 L762 836 L555 983 L571 733 L412 733 L428 979 L215 834 Z " />
<glyph glyph-name="plus" unicode="&#x2b;" horiz-adv-x="1706" d="M752 1221 L954 1221 L954 711 L1452 711 L1452 512 L954 512 L954 0 L752 0 L752 512 L254 512 L254 711 L752 711 L752 1221 Z " />
<glyph glyph-name="comma" unicode="&#x2c;" horiz-adv-x="629" d="M63 -332 L256 295 L563 295 L254 -332 L63 -332 Z " />
<glyph glyph-name="hyphen" unicode="&#x2d;" horiz-adv-x="854" d="M147 362 L147 614 L707 614 L707 362 L147 362 Z " />
<glyph glyph-name="period" unicode="&#x2e;" horiz-adv-x="629" d="M141 141 Q141 213 191.5 264 Q242 315 313 315 Q384 315 434.5 264 Q485 213 485 141 Q485 70 435 20.5 Q385 -29 313 -29 Q242 -29 191.5 21 Q141 71 141 141 Z " />
<glyph glyph-name="slash" unicode="&#x2f;" horiz-adv-x="930" d="M0 -190 L717 1497 L930 1497 L213 -190 L0 -190 Z " />
<glyph glyph-name="zero" unicode="0" horiz-adv-x="1255" d="M1169 721 Q1169 363 1026 162 Q883 -39 629 -39 Q373 -39 230.5 160.5 Q88 360 88 721 Q88 1077 231.5 1278 Q375 1479 629 1479 Q886 1479 1027.5 1280.5 Q1169 1082 1169 721 Z M391 719 Q391 483 452 357 Q513 231 627 231 Q744 231 804 356 Q864 481 864 723 Q864 962 804 1086 Q744 1210 629 1210 Q513 1210 452 1084 Q391 958 391 719 Z " />
<glyph glyph-name="one" unicode="1" horiz-adv-x="1255" d="M512 0 L512 1204 L219 1204 L342 1450 L807 1450 L807 0 L512 0 Z " />
<glyph glyph-name="two" unicode="2" horiz-adv-x="1255" d="M1094 242 L1094 0 L80 0 L600 682 Q708 823 750.5 904 Q793 985 793 1047 Q793 1133 741.5 1182 Q690 1231 600 1231 Q516 1231 466 1169.5 Q416 1108 416 1004 L416 997 L121 997 L121 1022 Q121 1240 246 1359.5 Q371 1479 600 1479 Q834 1479 964 1372 Q1094 1265 1094 1073 Q1094 857 756 435 L735 410 L600 242 L1094 242 Z " />
<glyph glyph-name="three" unicode="3" horiz-adv-x="1255" d="M106 387 L395 387 L395 383 Q395 304 454.5 254.5 Q514 205 610 205 Q721 205 781.5 260 Q842 315 842 416 Q842 523 779.5 578 Q717 633 596 633 Q590 633 577 632 Q564 631 557 631 L557 887 Q563 887 575 886 Q587 885 592 885 Q700 885 754.5 931 Q809 977 809 1069 Q809 1147 759.5 1195 Q710 1243 629 1243 Q543 1243 494 1204 Q445 1165 436 1092 L158 1092 Q169 1278 293 1378.5 Q417 1479 639 1479 Q852 1479 977 1374 Q1102 1269 1102 1090 Q1102 965 1034.5 877.5 Q967 790 856 770 Q985 742 1061 641 Q1137 540 1137 395 Q1137 194 994 77.5 Q851 -39 604 -39 Q379 -39 242.5 75 Q106 189 106 375 L106 387 Z " />
<glyph glyph-name="four" unicode="4" horiz-adv-x="1255" d="M752 0 L752 281 L47 281 L47 416 L752 1479 L1020 1479 L1020 489 L1174 489 L1174 281 L1020 281 L1020 0 L752 0 Z M756 489 L756 993 Q756 1067 758.5 1105 Q761 1143 766 1175 Q747 1124 721 1073 Q695 1022 664 973 L348 489 L756 489 Z " />
<glyph glyph-name="five" unicode="5" horiz-adv-x="1255" d="M156 317 Q259 248 333 223.5 Q407 199 494 199 Q639 199 722 270.5 Q805 342 805 465 Q805 593 724 662 Q643 731 492 731 Q412 731 344 709.5 Q276 688 219 645 L150 688 L332 1450 L1087 1450 L1087 1204 L522 1204 L451 907 Q502 923 548.5 930.5 Q595 938 643 938 Q850 938 981 808 Q1112 678 1112 473 Q1112 237 952 99 Q792 -39 514 -39 Q391 -39 287.5 -10 Q184 19 92 80 L156 317 Z " />
<glyph glyph-name="six" unicode="6" horiz-adv-x="1255" d="M403 451 Q403 344 464 281.5 Q525 219 629 219 Q728 219 789 283 Q850 347 850 451 Q850 561 789 623.5 Q728 686 621 686 Q525 686 464 620 Q403 554 403 451 Z M526 874 Q567 896 610 905.5 Q653 915 715 915 Q902 915 1021.5 788 Q1141 661 1141 463 Q1141 237 995.5 99 Q850 -39 612 -39 Q388 -39 253.5 99 Q119 237 119 465 Q119 596 178.5 751 Q238 906 362 1096 L594 1450 L944 1450 L526 874 Z " />
<glyph glyph-name="seven" unicode="7" horiz-adv-x="1255" d="M201 0 L786 1204 L127 1204 L127 1450 L1171 1450 L1171 1358 L514 0 L201 0 Z " />
<glyph glyph-name="eight" unicode="8" horiz-adv-x="1255" d="M872 774 Q997 736 1069 634 Q1141 532 1141 393 Q1141 191 1004 76 Q867 -39 623 -39 Q382 -39 242 76 Q102 191 102 387 Q102 530 174 633 Q246 736 373 774 Q261 821 208.5 897.5 Q156 974 156 1090 Q156 1263 284 1371 Q412 1479 623 1479 Q837 1479 963.5 1370.5 Q1090 1262 1090 1079 Q1090 971 1034 892.5 Q978 814 872 774 Z M625 1241 Q541 1241 490.5 1195 Q440 1149 440 1073 Q440 994 488.5 948.5 Q537 903 621 903 Q707 903 756 947.5 Q805 992 805 1071 Q805 1150 756.5 1195.5 Q708 1241 625 1241 Z M623 207 Q727 207 786.5 264.5 Q846 322 846 422 Q846 524 787 581.5 Q728 639 623 639 Q519 639 458 580 Q397 521 397 422 Q397 323 457.5 265 Q518 207 623 207 Z " />
<glyph glyph-name="nine" unicode="9" horiz-adv-x="1255" d="M856 991 Q856 1098 796 1160.5 Q736 1223 633 1223 Q533 1223 471.5 1158.5 Q410 1094 410 991 Q410 881 470.5 818.5 Q531 756 639 756 Q735 756 795.5 821.5 Q856 887 856 991 Z M733 567 Q691 545 646.5 534.5 Q602 524 545 524 Q358 524 239.5 651 Q121 778 121 977 Q121 1203 265 1341 Q409 1479 647 1479 Q872 1479 1007.5 1342 Q1143 1205 1143 979 Q1143 846 1081.5 688 Q1020 530 897 346 L666 0 L315 0 L733 567 Z " />
<glyph glyph-name="colon" unicode="&#x3a;" horiz-adv-x="688" d="M172 797 Q172 868 222 917.5 Q272 967 344 967 Q415 967 464.5 917.5 Q514 868 514 797 Q514 725 464.5 675 Q415 625 344 625 Q273 625 222.5 675.5 Q172 726 172 797 Z M172 143 Q172 215 222 264 Q272 313 344 313 Q415 313 464.5 264 Q514 215 514 143 Q514 72 464.5 21.5 Q415 -29 344 -29 Q273 -29 222.5 22 Q172 73 172 143 Z " />
<glyph glyph-name="semicolon" unicode="&#x3b;" horiz-adv-x="688" d="M264 797 Q264 868 314.5 917.5 Q365 967 436 967 Q508 967 558 917.5 Q608 868 608 797 Q608 725 558 675 Q508 625 436 625 Q365 625 314.5 675.5 Q264 726 264 797 Z M80 -332 L270 295 L580 295 L270 -332 L80 -332 Z " />
<glyph glyph-name="less" unicode="&#x3c;" horiz-adv-x="1706" d="M1442 1194 L1442 975 L549 610 L1442 246 L1442 27 L264 512 L264 711 L1442 1194 Z " />
<glyph glyph-name="equal" unicode="&#x3d;" horiz-adv-x="1706" d="M254 496 L1452 496 L1452 297 L254 297 L254 496 Z M254 926 L1452 926 L1452 727 L254 727 L254 926 Z " />
<glyph glyph-name="greater" unicode="&#x3e;" horiz-adv-x="1706" d="M264 1194 L1442 711 L1442 512 L264 27 L264 246 L1159 610 L264 975 L264 1194 Z " />
<glyph glyph-name="question" unicode="&#x3f;" horiz-adv-x="1186" d="M397 133 Q397 204 447.5 253.5 Q498 303 569 303 Q641 303 691 253.5 Q741 204 741 133 Q741 62 691 11.5 Q641 -39 569 -39 Q498 -39 447.5 12 Q397 63 397 133 Z M707 428 L432 428 L432 856 L520 856 Q622 856 678.5 914.5 Q735 973 735 1077 Q735 1172 693.5 1223 Q652 1274 573 1274 Q494 1274 452 1226 Q410 1178 410 1085 Q410 1080 411 1070 Q412 1060 412 1055 L129 1055 L129 1087 Q129 1273 255.5 1385 Q382 1497 590 1497 Q793 1497 910.5 1382 Q1028 1267 1028 1067 Q1028 913 946 816 Q864 719 707 686 L707 428 Z " />
<glyph glyph-name="at" unicode="&#x40;" horiz-adv-x="2048" d="M1167 272 Q1112 188 1040 148.5 Q968 109 870 109 Q712 109 629.5 195 Q547 281 547 449 Q547 688 686.5 850 Q826 1012 1030 1012 Q1110 1012 1169 979 Q1228 946 1266 881 L1319 979 L1497 979 L1350 381 Q1347 370 1345 358.5 Q1343 347 1343 340 Q1343 305 1367 287.5 Q1391 270 1438 270 Q1477 270 1519.5 290 Q1562 310 1599 346 Q1685 426 1729.5 533 Q1774 640 1774 768 Q1774 1008 1588.5 1162.5 Q1403 1317 1110 1317 Q969 1317 847.5 1283 Q726 1249 627 1182 Q457 1068 365.5 897 Q274 726 274 522 Q274 215 481 31.5 Q688 -152 1034 -152 Q1196 -152 1350.5 -103 Q1505 -54 1638 39 L1720 -78 Q1567 -193 1395.5 -251 Q1224 -309 1038 -309 Q846 -309 685 -260.5 Q524 -212 399 -117 Q244 4 167 162 Q90 320 90 520 Q90 687 142.5 838.5 Q195 990 297 1114 Q445 1295 653 1388 Q861 1481 1116 1481 Q1285 1481 1433.5 1435.5 Q1582 1390 1692 1307 Q1827 1202 1893.5 1067.5 Q1960 933 1960 764 Q1960 599 1894.5 459.5 Q1829 320 1706 221 Q1636 165 1553.5 135.5 Q1471 106 1382 106 Q1276 106 1222.5 148 Q1169 190 1167 272 Z M1217 700 Q1204 781 1159.5 823.5 Q1115 866 1042 866 Q928 866 844 742 Q760 618 760 444 Q760 352 800.5 304 Q841 256 918 256 Q1001 256 1069.5 319 Q1138 382 1163 483 L1217 700 Z " />
<glyph glyph-name="A" unicode="A" horiz-adv-x="1460" d="M922 557 L758 1030 Q751 1051 740 1102 Q729 1153 717 1227 Q704 1156 692 1099.5 Q680 1043 674 1024 L516 557 L922 557 Z M-10 0 L547 1464 L905 1464 L1470 0 L1114 0 L995 311 L428 311 L326 0 L-10 0 Z " />
<glyph glyph-name="B" unicode="B" horiz-adv-x="1223" d="M477 244 L600 244 Q718 244 779 295.5 Q840 347 840 446 Q840 539 779.5 588 Q719 637 604 637 L477 637 L477 244 Z M477 879 L547 879 Q689 879 748 919 Q807 959 807 1053 Q807 1145 750.5 1184 Q694 1223 553 1223 L477 1223 L477 879 Z M164 0 L164 1464 L438 1464 Q651 1464 749.5 1447.5 Q848 1431 920 1393 Q1005 1344 1051.5 1264 Q1098 1184 1098 1083 Q1098 953 1021 874.5 Q944 796 791 770 Q968 744 1058.5 655 Q1149 566 1149 418 Q1149 310 1097 220.5 Q1045 131 954 82 Q873 38 764 19 Q655 0 403 0 L371 0 L164 0 Z " />
<glyph glyph-name="C" unicode="C" horiz-adv-x="1470" d="M1343 1083 Q1248 1168 1148 1207.5 Q1048 1247 934 1247 Q700 1247 561 1107 Q422 967 422 731 Q422 500 551 364.5 Q680 229 903 229 Q1030 229 1139 271.5 Q1248 314 1341 399 L1339 78 Q1239 19 1129.5 -10 Q1020 -39 899 -39 Q549 -39 324.5 178.5 Q100 396 100 731 Q100 1065 325 1282 Q550 1499 905 1499 Q1024 1499 1135 1474 Q1246 1449 1354 1397 L1343 1083 Z " />
<glyph glyph-name="D" unicode="D" horiz-adv-x="1542" d="M477 264 L651 264 Q897 264 1009.5 376 Q1122 488 1122 731 Q1122 973 1009.5 1085.5 Q897 1198 651 1198 L477 1198 L477 264 Z M164 0 L164 1464 L563 1464 Q799 1464 935 1431 Q1071 1398 1174 1321 Q1307 1222 1375.5 1071.5 Q1444 921 1444 729 Q1444 534 1374 383.5 Q1304 233 1169 135 Q1069 63 946.5 31.5 Q824 0 588 0 L477 0 L164 0 Z " />
<glyph glyph-name="E" unicode="E" horiz-adv-x="1169" d="M164 0 L164 1464 L1026 1464 L1026 1200 L477 1200 L477 899 L1026 899 L1026 633 L477 633 L477 266 L1026 266 L1026 0 L164 0 Z " />
<glyph glyph-name="F" unicode="F" horiz-adv-x="1104" d="M164 0 L164 1464 L1026 1464 L1026 1200 L477 1200 L477 899 L1026 899 L1026 633 L477 633 L477 0 L164 0 Z " />
<glyph glyph-name="G" unicode="G" horiz-adv-x="1645" d="M891 772 L1558 772 Q1560 759 1560.5 744 Q1561 729 1561 698 Q1561 369 1373 165 Q1185 -39 887 -39 Q546 -39 325 178.5 Q104 396 104 731 Q104 1063 326 1280 Q548 1497 887 1497 Q1066 1497 1215 1422 Q1364 1347 1481 1198 L1270 1042 Q1191 1140 1104 1183.5 Q1017 1227 903 1227 Q686 1227 556 1092 Q426 957 426 731 Q426 509 556.5 372.5 Q687 236 897 236 Q1051 236 1147 308.5 Q1243 381 1243 498 L1243 514 L891 514 L891 772 Z " />
<glyph glyph-name="H" unicode="H" horiz-adv-x="1587" d="M164 0 L164 1464 L477 1464 L477 877 L1112 877 L1112 1464 L1425 1464 L1425 0 L1112 0 L1112 612 L477 612 L477 0 L164 0 Z " />
<glyph glyph-name="I" unicode="I" horiz-adv-x="653" d="M170 0 L170 1464 L483 1464 L483 0 L170 0 Z " />
<glyph glyph-name="J" unicode="J" horiz-adv-x="909" d="M758 1464 L758 500 Q758 335 745 258 Q732 181 702 127 Q658 45 572.5 3 Q487 -39 365 -39 Q211 -39 118.5 38 Q26 115 0 264 L227 372 Q235 303 262.5 268 Q290 233 338 233 Q398 233 421 276.5 Q444 320 444 471 L444 602 L444 1464 L758 1464 Z " />
<glyph glyph-name="K" unicode="K" horiz-adv-x="1327" d="M164 0 L164 1464 L477 1464 L477 801 L965 1464 L1327 1464 L803 797 L1346 0 L969 0 L477 766 L477 0 L164 0 Z " />
<glyph glyph-name="L" unicode="L" horiz-adv-x="1010" d="M164 0 L164 1464 L477 1464 L477 266 L977 266 L977 0 L164 0 Z " />
<glyph glyph-name="M" unicode="M" horiz-adv-x="1819" d="M37 0 L260 1464 L588 1464 L870 602 Q879 575 889.5 523 Q900 471 909 404 Q917 472 927 525.5 Q937 579 946 604 L1233 1464 L1556 1464 L1780 0 L1483 0 L1376 883 Q1364 981 1360 1031 Q1356 1081 1356 1124 Q1356 1147 1356.5 1158.5 Q1357 1170 1358 1179 Q1343 1093 1329.5 1030.5 Q1316 968 1305 936 L995 0 L819 0 L514 936 Q510 949 496.5 1008 Q483 1067 459 1180 L459 1137 Q459 1035 441 887 L440 883 L334 0 L37 0 Z " />
<glyph glyph-name="N" unicode="N" horiz-adv-x="1708" d="M164 0 L164 1464 L489 1464 L1137 612 Q1165 576 1198.5 510.5 Q1232 445 1268 356 Q1257 421 1252 485 Q1247 549 1247 645 L1247 1464 L1546 1464 L1546 0 L1239 0 L573 868 Q545 904 512 969.5 Q479 1035 442 1126 Q453 1063 458 998.5 Q463 934 463 836 L463 0 L164 0 Z " />
<glyph glyph-name="O" unicode="O" horiz-adv-x="1763" d="M1663 729 Q1663 572 1604.5 432 Q1546 292 1436 186 Q1322 77 1179 19 Q1036 -39 883 -39 Q749 -39 620.5 6.5 Q492 52 385 137 Q247 247 173.5 400 Q100 553 100 729 Q100 887 158 1025.5 Q216 1164 328 1272 Q438 1379 583.5 1438 Q729 1497 883 1497 Q1036 1497 1180.5 1438 Q1325 1379 1436 1272 Q1547 1164 1605 1025 Q1663 886 1663 729 Z M883 240 Q1082 240 1211.5 379.5 Q1341 519 1341 729 Q1341 937 1210 1079 Q1079 1221 883 1221 Q684 1221 553 1079.5 Q422 938 422 729 Q422 517 551 378.5 Q680 240 883 240 Z " />
<glyph glyph-name="P" unicode="P" horiz-adv-x="1139" d="M479 803 L524 803 Q652 803 710 856 Q768 909 768 1026 Q768 1134 710 1183.5 Q652 1233 524 1233 L479 1233 L479 803 Z M164 0 L164 1464 L524 1464 Q812 1464 949.5 1354 Q1087 1244 1087 1014 Q1087 801 948.5 680 Q810 559 565 559 L479 559 L479 0 L164 0 Z " />
<glyph glyph-name="Q" unicode="Q" horiz-adv-x="1763" d="M1092 496 L1200 369 Q1268 439 1304.5 533.5 Q1341 628 1341 729 Q1341 937 1210 1079 Q1079 1221 883 1221 Q684 1221 553 1079.5 Q422 938 422 729 Q422 518 550.5 379 Q679 240 877 240 Q894 240 924.5 243.5 Q955 247 997 254 L786 496 L1092 496 Z M1655 -170 L1343 -170 L1184 18 Q1076 -10 1004.5 -22.5 Q933 -35 877 -35 Q726 -35 581 24 Q436 83 328 188 Q217 296 157.5 436.5 Q98 577 98 731 Q98 885 157 1024.5 Q216 1164 328 1274 Q437 1382 580.5 1439.5 Q724 1497 883 1497 Q1039 1497 1182 1439.5 Q1325 1382 1436 1274 Q1547 1165 1606 1026 Q1665 887 1665 731 Q1665 559 1594 410 Q1523 261 1386 145 L1655 -170 Z " />
<glyph glyph-name="R" unicode="R" horiz-adv-x="1241" d="M1223 0 L862 0 L477 684 L477 0 L164 0 L164 1464 L612 1464 Q879 1464 1012 1360.5 Q1145 1257 1145 1049 Q1145 898 1054 791 Q963 684 819 666 L1223 0 Z M477 840 L524 840 Q714 840 775 881.5 Q836 923 836 1026 Q836 1134 770.5 1179.5 Q705 1225 524 1225 L477 1225 L477 840 Z " />
<glyph glyph-name="S" unicode="S" horiz-adv-x="1147" d="M70 186 L244 383 Q277 302 350 255.5 Q423 209 514 209 Q624 209 688 261 Q752 313 752 401 Q752 505 539 608 Q470 641 430 662 Q238 762 164 857.5 Q90 953 90 1085 Q90 1266 233.5 1382.5 Q377 1499 606 1499 Q739 1499 835.5 1452.5 Q932 1406 1006 1307 L821 1130 Q788 1194 733.5 1225.5 Q679 1257 602 1257 Q509 1257 452 1210.5 Q395 1164 395 1090 Q395 974 621 878 Q666 859 690 848 Q876 763 965.5 656 Q1055 549 1055 412 Q1055 206 914.5 83.5 Q774 -39 537 -39 Q369 -39 249 19 Q129 77 70 186 Z " />
<glyph glyph-name="T" unicode="T" horiz-adv-x="1110" d="M711 1198 L711 0 L397 0 L397 1198 L39 1198 L39 1464 L1071 1464 L1071 1198 L711 1198 Z " />
<glyph glyph-name="U" unicode="U" horiz-adv-x="1583" d="M1423 1464 L1423 553 Q1423 255 1266 108 Q1109 -39 793 -39 Q472 -39 315 108 Q158 255 158 553 L158 1464 L469 1464 L469 602 Q469 421 549 329.5 Q629 238 788 238 Q948 238 1030 330 Q1112 422 1112 602 L1112 1464 L1423 1464 Z " />
<glyph glyph-name="V" unicode="V" horiz-adv-x="1370" d="M535 0 L-6 1464 L340 1464 L625 551 Q633 523 650 447 Q667 371 686 274 Q699 368 714.5 441 Q730 514 745 561 L1034 1464 L1376 1464 L831 0 L535 0 Z " />
<glyph glyph-name="W" unicode="W" horiz-adv-x="2058" d="M1182 1464 L1399 670 Q1420 594 1438 507 Q1456 420 1472 312 Q1474 403 1485.5 491.5 Q1497 580 1520 670 L1710 1464 L2019 1464 L1636 0 L1335 0 L1073 934 Q1054 998 1043 1063 Q1032 1128 1028 1198 Q1023 1124 1012.5 1058 Q1002 992 985 934 L721 0 L420 0 L37 1464 L350 1464 L543 651 Q559 581 569 499.5 Q579 418 584 322 Q603 449 654 644 L659 665 L874 1464 L1182 1464 Z " />
<glyph glyph-name="X" unicode="X" horiz-adv-x="1229" d="M549 1081 Q573 1040 587 1008.5 Q601 977 612 942 Q625 978 641 1013 Q657 1048 680 1087 L887 1464 L1219 1464 L782 766 L1233 0 L895 0 L678 406 Q658 443 642.5 483 Q627 523 614 567 Q597 515 580 474 Q563 433 547 403 L330 0 L-6 0 L446 766 L6 1464 L340 1464 L549 1081 Z " />
<glyph glyph-name="Y" unicode="Y" horiz-adv-x="1241" d="M465 0 L465 668 L-31 1464 L336 1464 L553 1063 Q569 1033 586 987 Q603 941 621 881 Q635 932 652.5 977 Q670 1022 692 1065 L907 1464 L1272 1464 L778 668 L778 0 L465 0 Z " />
<glyph glyph-name="Z" unicode="Z" horiz-adv-x="1298" d="M1235 0 L6 0 L764 1214 L84 1214 L84 1464 L1266 1464 L508 252 L1235 252 L1235 0 Z " />
<glyph glyph-name="bracketleft" unicode="&#x5b;" horiz-adv-x="688" d="M182 1497 L633 1497 L633 1266 L434 1266 L434 -217 L633 -217 L633 -451 L182 -451 L182 1497 Z " />
<glyph glyph-name="backslash" unicode="&#x5c;" horiz-adv-x="930" d="M717 -190 L0 1497 L213 1497 L930 -190 L717 -190 Z " />
<glyph glyph-name="bracketright" unicode="&#x5d;" horiz-adv-x="688" d="M506 1497 L506 -451 L55 -451 L55 -217 L254 -217 L254 1266 L55 1266 L55 1497 L506 1497 Z " />
<glyph glyph-name="asciicircum" unicode="&#x5e;" horiz-adv-x="2048" d="M897 1460 L1149 1460 L1630 899 L1395 899 L1024 1270 L651 899 L416 899 L897 1460 Z " />
<glyph glyph-name="underscore" unicode="&#x5f;" horiz-adv-x="1024" d="M0 -279 L1024 -279 L1024 -483 L0 -483 L0 -279 Z " />
<glyph glyph-name="grave" unicode="&#x60;" horiz-adv-x="1024" d="M219 1495 L477 1495 L674 1126 L532 1126 L219 1495 Z " />
<glyph glyph-name="a" unicode="a" horiz-adv-x="1251" d="M862 492 Q862 624 795.5 701 Q729 778 616 778 Q500 778 433.5 701.5 Q367 625 367 492 Q367 359 432.5 285 Q498 211 614 211 Q732 211 797 285 Q862 359 862 492 Z M1122 0 L846 0 L850 141 Q792 48 710.5 4.5 Q629 -39 512 -39 Q317 -39 197.5 106 Q78 251 78 489 Q78 737 195.5 875.5 Q313 1014 522 1014 Q631 1014 713.5 965 Q796 916 852 819 L852 981 L1122 981 L1122 0 Z " />
<glyph glyph-name="b" unicode="b" horiz-adv-x="1262" d="M399 492 Q399 359 464.5 285 Q530 211 647 211 Q764 211 829.5 285 Q895 359 895 492 Q895 625 828.5 701.5 Q762 778 645 778 Q532 778 465.5 701 Q399 624 399 492 Z M139 0 L139 1550 L412 1550 L412 991 Q412 945 408.5 899.5 Q405 854 399 811 Q469 917 551 965.5 Q633 1014 739 1014 Q949 1014 1066.5 875.5 Q1184 737 1184 489 Q1184 250 1065 105.5 Q946 -39 752 -39 Q635 -39 553.5 4.5 Q472 48 414 141 L416 0 L139 0 Z " />
<glyph glyph-name="c" unicode="c" horiz-adv-x="938" d="M862 29 Q804 -6 740 -22.5 Q676 -39 600 -39 Q368 -39 222 108.5 Q76 256 76 492 Q76 723 223 868.5 Q370 1014 604 1014 Q682 1014 744 999 Q806 984 862 952 L860 666 Q815 712 756 737 Q697 762 631 762 Q511 762 439 688.5 Q367 615 367 494 Q367 370 440.5 296.5 Q514 223 639 223 Q708 223 761.5 248 Q815 273 860 326 L862 29 Z " />
<glyph glyph-name="d" unicode="d" horiz-adv-x="1262" d="M862 492 Q862 624 795.5 701 Q729 778 616 778 Q500 778 433.5 702.5 Q367 627 367 494 Q367 361 432.5 286 Q498 211 614 211 Q732 211 797 285 Q862 359 862 492 Z M1122 0 L846 0 L850 141 Q792 48 710.5 4.5 Q629 -39 512 -39 Q317 -39 197.5 106 Q78 251 78 489 Q78 738 195.5 877 Q313 1016 522 1016 Q629 1016 710 967 Q791 918 862 812 Q857 848 854.5 891.5 Q852 935 852 991 L852 1550 L1122 1550 L1122 0 Z " />
<glyph glyph-name="e" unicode="e" horiz-adv-x="1174" d="M815 592 Q803 685 747.5 732.5 Q692 780 596 780 Q500 780 442.5 732.5 Q385 685 369 592 L815 592 Z M1097 420 L360 420 Q377 314 437 261.5 Q497 209 600 209 Q678 209 734.5 239 Q791 269 829 330 L1059 215 Q979 86 865 23.5 Q751 -39 594 -39 Q356 -39 217 103 Q78 245 78 485 Q78 716 223.5 865 Q369 1014 596 1014 Q830 1014 966 874.5 Q1102 735 1102 494 Q1102 481 1101 465.5 Q1100 450 1097 420 Z " />
<glyph glyph-name="f" unicode="f" horiz-adv-x="678" d="M174 0 L174 758 L47 758 L47 981 L174 981 L174 1202 Q174 1400 265 1485.5 Q356 1571 565 1571 Q588 1571 618.5 1566.5 Q649 1562 698 1550 L698 1323 Q672 1337 648 1343.5 Q624 1350 598 1350 Q523 1350 491 1310.5 Q459 1271 459 1174 L459 981 L641 981 L641 758 L459 758 L459 0 L174 0 Z " />
<glyph glyph-name="g" unicode="g" horiz-adv-x="1262" d="M1120 16 Q1120 -139 1101.5 -202 Q1083 -265 1038 -311 Q974 -380 874 -413 Q774 -446 631 -446 Q392 -446 268 -370 Q144 -294 133 -139 L446 -139 Q453 -196 498 -223 Q543 -250 631 -250 Q747 -250 798.5 -190 Q850 -130 850 10 L850 150 Q793 59 712.5 15 Q632 -29 522 -29 Q320 -29 199 112.5 Q78 254 78 494 Q78 738 196 876 Q314 1014 522 1014 Q629 1014 712.5 964.5 Q796 915 852 819 L852 981 L1120 981 L1120 16 Z M862 492 Q862 622 796 697 Q730 772 616 772 Q499 772 433 697.5 Q367 623 367 492 Q367 361 432 288 Q497 215 614 215 Q731 215 796.5 288 Q862 361 862 492 Z " />
<glyph glyph-name="h" unicode="h" horiz-adv-x="1266" d="M139 0 L139 1550 L418 1550 L418 999 Q418 953 415 907.5 Q412 862 406 819 Q494 922 582.5 968 Q671 1014 780 1014 Q894 1014 972.5 975 Q1051 936 1094 858 Q1116 817 1125.5 765.5 Q1135 714 1135 604 L1135 573 L1135 0 L850 0 L850 485 Q850 666 808 724 Q766 782 664 782 Q605 782 555.5 757.5 Q506 733 473 688 Q447 653 435.5 608 Q424 563 424 471 L424 432 L424 0 L139 0 Z " />
<glyph glyph-name="i" unicode="i" horiz-adv-x="584" d="M125 1384 Q125 1452 174 1501 Q223 1550 291 1550 Q360 1550 409.5 1501.5 Q459 1453 459 1384 Q459 1315 409.5 1266 Q360 1217 291 1217 Q223 1217 174 1267 Q125 1317 125 1384 Z M150 0 L150 981 L434 981 L434 0 L150 0 Z " />
<glyph glyph-name="j" unicode="j" horiz-adv-x="584" d="M125 1384 Q125 1452 174 1501 Q223 1550 291 1550 Q360 1550 409.5 1501.5 Q459 1453 459 1384 Q459 1315 409.5 1266 Q360 1217 291 1217 Q223 1217 174 1267 Q125 1317 125 1384 Z M150 -446 L150 981 L434 981 L434 -446 L150 -446 Z " />
<glyph glyph-name="k" unicode="k" horiz-adv-x="1157" d="M139 1550 L424 1550 L424 547 L788 981 L1130 981 L735 547 L1169 0 L817 0 L424 520 L424 0 L139 0 L139 1550 Z " />
<glyph glyph-name="l" unicode="l" horiz-adv-x="584" d="M150 0 L150 1550 L434 1550 L434 0 L150 0 Z " />
<glyph glyph-name="m" unicode="m" horiz-adv-x="1862" d="M420 0 L135 0 L135 981 L420 981 L420 827 Q490 924 569.5 969 Q649 1014 750 1014 Q872 1014 948.5 964 Q1025 914 1057 813 Q1125 913 1211.5 963.5 Q1298 1014 1401 1014 Q1505 1014 1577.5 975.5 Q1650 937 1690 860 Q1711 818 1720 765 Q1729 712 1729 604 L1729 573 L1729 0 L1444 0 L1444 485 Q1444 664 1407.5 723 Q1371 782 1280 782 Q1170 782 1120.5 700 Q1071 618 1071 432 L1071 0 L786 0 L786 485 Q786 658 752 719 Q718 780 635 780 Q522 780 471 697.5 Q420 615 420 432 L420 0 Z " />
<glyph glyph-name="n" unicode="n" horiz-adv-x="1266" d="M139 0 L139 981 L418 981 L418 827 Q495 923 583.5 968.5 Q672 1014 780 1014 Q894 1014 971.5 975.5 Q1049 937 1094 858 Q1116 817 1125.5 765.5 Q1135 714 1135 604 L1135 573 L1135 0 L850 0 L850 485 Q850 666 808 724 Q766 782 664 782 Q605 782 555.5 757.5 Q506 733 473 688 Q447 653 435.5 608 Q424 563 424 471 L424 432 L424 0 L139 0 Z " />
<glyph glyph-name="o" unicode="o" horiz-adv-x="1247" d="M881 489 Q881 609 811 680.5 Q741 752 623 752 Q505 752 436 681 Q367 610 367 489 Q367 369 436 297 Q505 225 623 225 Q740 225 810.5 297 Q881 369 881 489 Z M1171 487 Q1171 261 1016.5 111 Q862 -39 625 -39 Q386 -39 231 111 Q76 261 76 487 Q76 712 232 863 Q388 1014 625 1014 Q863 1014 1017 865 Q1171 716 1171 487 Z " />
<glyph glyph-name="p" unicode="p" horiz-adv-x="1262" d="M399 492 Q399 359 464.5 285 Q530 211 647 211 Q764 211 829.5 285 Q895 359 895 492 Q895 625 828.5 701.5 Q762 778 645 778 Q532 778 465.5 701 Q399 624 399 492 Z M139 -446 L139 981 L412 981 L412 819 Q468 917 549.5 965.5 Q631 1014 739 1014 Q948 1014 1066 875.5 Q1184 737 1184 489 Q1184 250 1065 105.5 Q946 -39 752 -39 Q635 -39 553.5 4.5 Q472 48 414 141 Q419 104 421.5 60.5 Q424 17 424 -39 L424 -446 L139 -446 Z " />
<glyph glyph-name="q" unicode="q" horiz-adv-x="1262" d="M862 492 Q862 624 795.5 701 Q729 778 616 778 Q500 778 433.5 701.5 Q367 625 367 492 Q367 359 432.5 285 Q498 211 614 211 Q732 211 797 285 Q862 359 862 492 Z M1122 -446 L838 -446 L838 -39 Q838 8 841 53.5 Q844 99 850 141 Q792 48 710.5 4.5 Q629 -39 512 -39 Q317 -39 197.5 106 Q78 251 78 489 Q78 737 195.5 875.5 Q313 1014 522 1014 Q631 1014 713.5 965 Q796 916 852 819 L852 981 L1122 981 L1122 -446 Z " />
<glyph glyph-name="r" unicode="r" horiz-adv-x="834" d="M414 729 Q457 872 537.5 943 Q618 1014 737 1014 Q764 1014 826 1004 Q838 1002 844 1001 L801 695 Q769 708 736.5 714.5 Q704 721 668 721 Q538 721 481 654.5 Q424 588 424 432 L424 0 L139 0 L139 981 L420 981 L414 729 Z " />
<glyph glyph-name="s" unicode="s" horiz-adv-x="934" d="M43 172 L262 285 Q273 228 321 195 Q369 162 440 162 Q510 162 550 187.5 Q590 213 590 258 Q590 329 448 377 Q404 392 378 402 Q205 467 138.5 533 Q72 599 72 696 Q72 840 185 929 Q298 1018 483 1018 Q615 1018 711.5 965 Q808 912 852 815 L643 711 Q626 766 584 794.5 Q542 823 479 823 Q416 823 377 797 Q338 771 338 729 Q338 656 532 593 Q555 586 567 582 Q728 529 796 458.5 Q864 388 864 279 Q864 133 751 47 Q638 -39 446 -39 Q294 -39 186.5 17.5 Q79 74 43 172 Z " />
<glyph glyph-name="t" unicode="t" horiz-adv-x="633" d="M174 0 L174 758 L37 758 L37 981 L174 981 L174 1307 L459 1307 L459 981 L596 981 L596 758 L459 758 L459 0 L174 0 Z " />
<glyph glyph-name="u" unicode="u" horiz-adv-x="1268" d="M418 981 L418 465 Q418 335 468.5 279 Q519 223 633 223 Q746 223 797 279.5 Q848 336 848 465 L848 981 L1133 981 L1133 465 Q1133 206 1012 83.5 Q891 -39 637 -39 Q378 -39 256.5 83 Q135 205 135 465 L135 981 L418 981 Z " />
<glyph glyph-name="v" unicode="v" horiz-adv-x="1053" d="M381 0 L-18 981 L311 981 L477 471 Q497 409 509 356 Q521 303 526 252 Q538 329 550 383 Q562 437 578 481 L745 981 L1069 981 L666 0 L381 0 Z " />
<glyph glyph-name="w" unicode="w" horiz-adv-x="1673" d="M991 981 L1133 473 Q1137 458 1143.5 420 Q1150 382 1167 264 Q1176 310 1189.5 361 Q1203 412 1223 475 L1376 981 L1686 981 L1346 0 L1042 0 L895 508 Q891 522 882 553 Q849 668 834 741 Q821 673 808.5 617 Q796 561 782 512 L631 0 L328 0 L-12 981 L299 981 L449 494 Q469 428 482 374.5 Q495 321 504 265 Q512 326 523 382.5 Q534 439 549 492 L680 981 L991 981 Z " />
<glyph glyph-name="x" unicode="x" horiz-adv-x="1020" d="M319 0 L-18 0 L330 498 L0 981 L356 981 L453 799 Q471 764 485.5 727 Q500 690 512 649 Q523 687 539 724.5 Q555 762 578 801 L682 981 L1020 981 L684 504 L1038 0 L684 0 L569 201 Q549 239 533.5 276.5 Q518 314 508 352 Q498 313 482 276.5 Q466 240 440 199 L319 0 Z " />
<glyph glyph-name="y" unicode="y" horiz-adv-x="1053" d="M381 76 L-14 981 L315 981 L485 532 Q502 490 513 435.5 Q524 381 530 314 Q540 368 555 424 Q570 480 592 543 L741 981 L1067 981 L483 -446 L168 -446 L381 76 Z " />
<glyph glyph-name="z" unicode="z" horiz-adv-x="985" d="M940 0 L0 0 L520 758 L63 758 L63 981 L952 981 L438 223 L940 223 L940 0 Z " />
<glyph glyph-name="braceleft" unicode="&#x7b;" horiz-adv-x="1024" d="M883 1477 L883 1268 Q874 1268 858 1269 Q842 1270 836 1270 Q735 1270 699.5 1231.5 Q664 1193 664 1069 L664 829 Q664 681 619 619 Q574 557 457 530 Q574 503 619 442 Q664 381 664 233 L664 -8 Q664 -131 699 -169 Q734 -207 836 -207 Q842 -207 858 -206 Q874 -205 883 -205 L883 -414 Q869 -414 844 -415 Q819 -416 807 -416 Q707 -416 640 -404 Q573 -392 526 -367 Q469 -333 445.5 -275.5 Q422 -218 422 -76 L422 176 Q422 313 371 370.5 Q320 428 199 428 Q193 428 179 427 Q165 426 158 426 L158 635 Q165 635 179 634 Q193 633 199 633 Q319 633 370.5 691 Q422 749 422 887 L422 1137 Q422 1280 445.5 1338 Q469 1396 526 1430 Q573 1455 640 1467 Q707 1479 807 1479 Q819 1479 844 1478 Q869 1477 883 1477 Z " />
<glyph glyph-name="bar" unicode="&#x7c;" horiz-adv-x="1024" d="M410 1565 L616 1565 L616 -483 L410 -483 L410 1565 Z " />
<glyph glyph-name="braceright" unicode="&#x7d;" horiz-adv-x="1024" d="M143 1477 L211 1477 Q321 1477 388 1465 Q455 1453 500 1427 Q557 1395 580.5 1335.5 Q604 1276 604 1137 L604 885 Q604 748 655 690.5 Q706 633 827 633 Q833 633 847 634 Q861 635 868 635 L868 426 L831 426 Q706 426 655 370 Q604 314 604 176 L604 -76 Q604 -219 580.5 -277 Q557 -335 500 -367 Q453 -392 386 -404 Q319 -416 219 -416 Q207 -416 182 -415 Q157 -414 143 -414 L143 -205 Q152 -205 168 -206 Q184 -207 190 -207 Q291 -207 326.5 -168.5 Q362 -130 362 -8 L362 231 Q362 381 407 442.5 Q452 504 569 530 Q452 557 407 619 Q362 681 362 829 L362 1071 Q362 1193 326.5 1231.5 Q291 1270 190 1270 Q184 1270 168 1269 Q152 1268 143 1268 L143 1477 Z " />
<glyph glyph-name="asciitilde" unicode="&#x7e;" horiz-adv-x="1706" d="M1530 803 L1530 582 Q1426 511 1333.5 477.5 Q1241 444 1151 444 Q1105 444 1059 452 Q1013 460 967 475 Q943 483 896 500 Q677 575 563 575 Q478 575 385.5 537.5 Q293 500 178 418 L178 639 Q285 711 382 746.5 Q479 782 565 782 Q682 782 856 724 Q859 723 860 723 Q878 717 915 704 Q1070 649 1155 649 Q1240 649 1330 686 Q1420 723 1530 803 Z " />
<glyph glyph-name="Adieresis" unicode="&#xc4;" horiz-adv-x="1460" d="M922 557 L758 1030 Q751 1051 740 1102 Q729 1153 717 1227 Q704 1156 692 1099.5 Q680 1043 674 1024 L516 557 L922 557 Z M-10 0 L547 1464 L905 1464 L1470 0 L1114 0 L995 311 L428 311 L326 0 L-10 0 Z M788 1786 Q788 1837 827.5 1876 Q867 1915 919 1915 Q973 1915 1010.5 1877 Q1048 1839 1048 1786 Q1048 1729 1011.5 1692 Q975 1655 919 1655 Q864 1655 826 1692.5 Q788 1730 788 1786 Z M414 1786 Q414 1837 453.5 1876 Q493 1915 545 1915 Q598 1915 636 1877 Q674 1839 674 1786 Q674 1729 637 1692 Q600 1655 545 1655 Q489 1655 451.5 1692.5 Q414 1730 414 1786 Z " />
<glyph glyph-name="Aring" unicode="&#xc5;" horiz-adv-x="1460" d="M608 1712 Q608 1663 643 1628 Q678 1593 727 1593 Q777 1593 811.5 1627.5 Q846 1662 846 1712 Q846 1762 811.5 1796.5 Q777 1831 727 1831 Q678 1831 643 1796 Q608 1761 608 1712 Z M674 1036 L516 557 L922 557 L758 1040 Q749 1070 737.5 1122.5 Q726 1175 717 1237 Q705 1167 693.5 1113 Q682 1059 674 1036 Z M-10 0 L547 1464 L668 1464 Q574 1483 520.5 1549 Q467 1615 467 1712 Q467 1820 543 1896 Q619 1972 727 1972 Q836 1972 911.5 1896 Q987 1820 987 1712 Q987 1618 936.5 1552.5 Q886 1487 795 1464 L905 1464 L1470 0 L1114 0 L995 311 L428 311 L326 0 L-10 0 Z " />
<glyph glyph-name="Ccedilla" unicode="&#xc7;" horiz-adv-x="1470" d="M1343 1083 Q1248 1168 1148 1207.5 Q1048 1247 934 1247 Q700 1247 561 1107 Q422 967 422 731 Q422 500 551 364.5 Q680 229 903 229 Q1030 229 1139 271.5 Q1248 314 1341 399 L1339 78 Q1239 19 1129.5 -10 Q1020 -39 899 -39 Q549 -39 324.5 178.5 Q100 396 100 731 Q100 1065 325 1282 Q550 1499 905 1499 Q1024 1499 1135 1474 Q1246 1449 1354 1397 L1343 1083 Z M617 -438 L617 -311 Q697 -332 764 -343 Q831 -354 875 -354 Q926 -354 950.5 -335.5 Q975 -317 975 -279 Q975 -242 947.5 -226.5 Q920 -211 854 -211 Q835 -211 822 -211.5 Q809 -212 797 -213 L797 0 L899 0 L899 -90 L914 -90 Q1030 -90 1089.5 -138.5 Q1149 -187 1149 -283 Q1149 -382 1082.5 -431.5 Q1016 -481 883 -481 Q834 -481 764.5 -470 Q695 -459 617 -438 Z " />
<glyph glyph-name="Eacute" unicode="&#xc9;" horiz-adv-x="1169" d="M164 0 L164 1464 L1026 1464 L1026 1200 L477 1200 L477 899 L1026 899 L1026 633 L477 633 L477 266 L1026 266 L1026 0 L164 0 Z M885 1972 L572 1603 L430 1603 L627 1972 L885 1972 Z " />
<glyph glyph-name="Ntilde" unicode="&#xd1;" horiz-adv-x="1708" d="M164 0 L164 1464 L489 1464 L1137 612 Q1165 576 1198.5 510.5 Q1232 445 1268 356 Q1257 421 1252 485 Q1247 549 1247 645 L1247 1464 L1546 1464 L1546 0 L1239 0 L573 868 Q545 904 512 969.5 Q479 1035 442 1126 Q453 1063 458 998.5 Q463 934 463 836 L463 0 L164 0 Z M1171 1923 Q1143 1796 1093 1738.5 Q1043 1681 963 1681 Q942 1681 924 1683.5 Q906 1686 888 1692 L801 1718 Q780 1724 765 1726 Q750 1728 735 1728 Q701 1728 680 1709.5 Q659 1691 647 1651 L537 1651 Q563 1773 612.5 1829.5 Q662 1886 741 1886 Q759 1886 781 1882.5 Q803 1879 827 1872 L920 1847 Q932 1843 945.5 1841 Q959 1839 975 1839 Q1008 1839 1029 1859.5 Q1050 1880 1061 1923 L1171 1923 Z " />
<glyph glyph-name="Odieresis" unicode="&#xd6;" horiz-adv-x="1763" d="M1663 729 Q1663 572 1604.5 432 Q1546 292 1436 186 Q1322 77 1179 19 Q1036 -39 883 -39 Q749 -39 620.5 6.5 Q492 52 385 137 Q247 247 173.5 400 Q100 553 100 729 Q100 887 158 1025.5 Q216 1164 328 1272 Q438 1379 583.5 1438 Q729 1497 883 1497 Q1036 1497 1180.5 1438 Q1325 1379 1436 1272 Q1547 1164 1605 1025 Q1663 886 1663 729 Z M883 240 Q1082 240 1211.5 379.5 Q1341 519 1341 729 Q1341 937 1210 1079 Q1079 1221 883 1221 Q684 1221 553 1079.5 Q422 938 422 729 Q422 517 551 378.5 Q680 240 883 240 Z M940 1786 Q940 1837 979.5 1876 Q1019 1915 1071 1915 Q1125 1915 1162.5 1877 Q1200 1839 1200 1786 Q1200 1729 1163.5 1692 Q1127 1655 1071 1655 Q1016 1655 978 1692.5 Q940 1730 940 1786 Z M566 1786 Q566 1837 605.5 1876 Q645 1915 697 1915 Q750 1915 788 1877 Q826 1839 826 1786 Q826 1729 789 1692 Q752 1655 697 1655 Q641 1655 603.5 1692.5 Q566 1730 566 1786 Z " />
<glyph glyph-name="Udieresis" unicode="&#xdc;" horiz-adv-x="1583" d="M1423 1464 L1423 553 Q1423 255 1266 108 Q1109 -39 793 -39 Q472 -39 315 108 Q158 255 158 553 L158 1464 L469 1464 L469 602 Q469 421 549 329.5 Q629 238 788 238 Q948 238 1030 330 Q1112 422 1112 602 L1112 1464 L1423 1464 Z M850 1786 Q850 1837 889.5 1876 Q929 1915 981 1915 Q1035 1915 1072.5 1877 Q1110 1839 1110 1786 Q1110 1729 1073.5 1692 Q1037 1655 981 1655 Q926 1655 888 1692.5 Q850 1730 850 1786 Z M476 1786 Q476 1837 515.5 1876 Q555 1915 607 1915 Q660 1915 698 1877 Q736 1839 736 1786 Q736 1729 699 1692 Q662 1655 607 1655 Q551 1655 513.5 1692.5 Q476 1730 476 1786 Z " />
<glyph glyph-name="aacute" unicode="&#xe1;" horiz-adv-x="1251" d="M862 492 Q862 624 795.5 701 Q729 778 616 778 Q500 778 433.5 701.5 Q367 625 367 492 Q367 359 432.5 285 Q498 211 614 211 Q732 211 797 285 Q862 359 862 492 Z M1122 0 L846 0 L850 141 Q792 48 710.5 4.5 Q629 -39 512 -39 Q317 -39 197.5 106 Q78 251 78 489 Q78 737 195.5 875.5 Q313 1014 522 1014 Q631 1014 713.5 965 Q796 916 852 819 L852 981 L1122 981 L1122 0 Z M938 1495 L625 1126 L483 1126 L680 1495 L938 1495 Z " />
<glyph glyph-name="agrave" unicode="&#xe0;" horiz-adv-x="1251" d="M862 492 Q862 624 795.5 701 Q729 778 616 778 Q500 778 433.5 701.5 Q367 625 367 492 Q367 359 432.5 285 Q498 211 614 211 Q732 211 797 285 Q862 359 862 492 Z M1122 0 L846 0 L850 141 Q792 48 710.5 4.5 Q629 -39 512 -39 Q317 -39 197.5 106 Q78 251 78 489 Q78 737 195.5 875.5 Q313 1014 522 1014 Q631 1014 713.5 965 Q796 916 852 819 L852 981 L1122 981 L1122 0 Z M352 1495 L610 1495 L807 1126 L665 1126 L352 1495 Z " />
<glyph glyph-name="acircumflex" unicode="&#xe2;" horiz-adv-x="1251" d="M862 492 Q862 624 795.5 701 Q729 778 616 778 Q500 778 433.5 701.5 Q367 625 367 492 Q367 359 432.5 285 Q498 211 614 211 Q732 211 797 285 Q862 359 862 492 Z M1122 0 L846 0 L850 141 Q792 48 710.5 4.5 Q629 -39 512 -39 Q317 -39 197.5 106 Q78 251 78 489 Q78 737 195.5 875.5 Q313 1014 522 1014 Q631 1014 713.5 965 Q796 916 852 819 L852 981 L1122 981 L1122 0 Z M330 1126 L526 1495 L764 1495 L960 1126 L819 1126 L645 1343 L469 1126 L330 1126 Z " />
<glyph glyph-name="adieresis" unicode="&#xe4;" horiz-adv-x="1251" d="M862 492 Q862 624 795.5 701 Q729 778 616 778 Q500 778 433.5 701.5 Q367 625 367 492 Q367 359 432.5 285 Q498 211 614 211 Q732 211 797 285 Q862 359 862 492 Z M1122 0 L846 0 L850 141 Q792 48 710.5 4.5 Q629 -39 512 -39 Q317 -39 197.5 106 Q78 251 78 489 Q78 737 195.5 875.5 Q313 1014 522 1014 Q631 1014 713.5 965 Q796 916 852 819 L852 981 L1122 981 L1122 0 Z M702 1309 Q702 1360 741.5 1399 Q781 1438 833 1438 Q887 1438 924.5 1400 Q962 1362 962 1309 Q962 1252 925.5 1215 Q889 1178 833 1178 Q778 1178 740 1215.5 Q702 1253 702 1309 Z M328 1309 Q328 1360 367.5 1399 Q407 1438 459 1438 Q512 1438 550 1400 Q588 1362 588 1309 Q588 1252 551 1215 Q514 1178 459 1178 Q403 1178 365.5 1215.5 Q328 1253 328 1309 Z " />
<glyph glyph-name="atilde" unicode="&#xe3;" horiz-adv-x="1251" d="M862 492 Q862 624 795.5 701 Q729 778 616 778 Q500 778 433.5 701.5 Q367 625 367 492 Q367 359 432.5 285 Q498 211 614 211 Q732 211 797 285 Q862 359 862 492 Z M1122 0 L846 0 L850 141 Q792 48 710.5 4.5 Q629 -39 512 -39 Q317 -39 197.5 106 Q78 251 78 489 Q78 737 195.5 875.5 Q313 1014 522 1014 Q631 1014 713.5 965 Q796 916 852 819 L852 981 L1122 981 L1122 0 Z M962 1446 Q934 1319 884 1261.5 Q834 1204 754 1204 Q733 1204 715 1206.5 Q697 1209 679 1215 L592 1241 Q571 1247 556 1249 Q541 1251 526 1251 Q492 1251 471 1232.5 Q450 1214 438 1174 L328 1174 Q354 1296 403.5 1352.5 Q453 1409 532 1409 Q550 1409 572 1405.5 Q594 1402 618 1395 L711 1370 Q723 1366 736.5 1364 Q750 1362 766 1362 Q799 1362 820 1382.5 Q841 1403 852 1446 L962 1446 Z " />
<glyph glyph-name="aring" unicode="&#xe5;" horiz-adv-x="1251" d="M506 1343 Q506 1292 541.5 1256.5 Q577 1221 629 1221 Q679 1221 715.5 1257 Q752 1293 752 1343 Q752 1394 716 1429 Q680 1464 629 1464 Q577 1464 541.5 1429 Q506 1394 506 1343 Z M362 1343 Q362 1454 440 1532 Q518 1610 629 1610 Q739 1610 817 1532 Q895 1454 895 1343 Q895 1232 817.5 1154.5 Q740 1077 629 1077 Q518 1077 440 1154.5 Q362 1232 362 1343 Z M862 492 Q862 624 795.5 701 Q729 778 616 778 Q500 778 433.5 701.5 Q367 625 367 492 Q367 359 432.5 285 Q498 211 614 211 Q732 211 797 285 Q862 359 862 492 Z M1122 0 L846 0 L850 141 Q792 48 710.5 4.5 Q629 -39 512 -39 Q317 -39 197.5 106 Q78 251 78 489 Q78 737 195.5 875.5 Q313 1014 522 1014 Q631 1014 713.5 965 Q796 916 852 819 L852 981 L1122 981 L1122 0 Z " />
<glyph glyph-name="ccedilla" unicode="&#xe7;" horiz-adv-x="938" d="M862 29 Q804 -6 740 -22.5 Q676 -39 600 -39 Q368 -39 222 108.5 Q76 256 76 492 Q76 723 223 868.5 Q370 1014 604 1014 Q682 1014 744 999 Q806 984 862 952 L860 666 Q815 712 756 737 Q697 762 631 762 Q511 762 439 688.5 Q367 615 367 494 Q367 370 440.5 296.5 Q514 223 639 223 Q708 223 761.5 248 Q815 273 860 326 L862 29 Z M297 -438 L297 -311 Q377 -332 444 -343 Q511 -354 555 -354 Q606 -354 630.5 -335.5 Q655 -317 655 -279 Q655 -242 627.5 -226.5 Q600 -211 534 -211 Q515 -211 502 -211.5 Q489 -212 477 -213 L477 0 L579 0 L579 -90 L594 -90 Q710 -90 769.5 -138.5 Q829 -187 829 -283 Q829 -382 762.5 -431.5 Q696 -481 563 -481 Q514 -481 444.5 -470 Q375 -459 297 -438 Z " />
<glyph glyph-name="eacute" unicode="&#xe9;" horiz-adv-x="1174" d="M815 592 Q803 685 747.5 732.5 Q692 780 596 780 Q500 780 442.5 732.5 Q385 685 369 592 L815 592 Z M1097 420 L360 420 Q377 314 437 261.5 Q497 209 600 209 Q678 209 734.5 239 Q791 269 829 330 L1059 215 Q979 86 865 23.5 Q751 -39 594 -39 Q356 -39 217 103 Q78 245 78 485 Q78 716 223.5 865 Q369 1014 596 1014 Q830 1014 966 874.5 Q1102 735 1102 494 Q1102 481 1101 465.5 Q1100 450 1097 420 Z M881 1495 L568 1126 L426 1126 L623 1495 L881 1495 Z " />
<glyph glyph-name="egrave" unicode="&#xe8;" horiz-adv-x="1174" d="M815 592 Q803 685 747.5 732.5 Q692 780 596 780 Q500 780 442.5 732.5 Q385 685 369 592 L815 592 Z M1097 420 L360 420 Q377 314 437 261.5 Q497 209 600 209 Q678 209 734.5 239 Q791 269 829 330 L1059 215 Q979 86 865 23.5 Q751 -39 594 -39 Q356 -39 217 103 Q78 245 78 485 Q78 716 223.5 865 Q369 1014 596 1014 Q830 1014 966 874.5 Q1102 735 1102 494 Q1102 481 1101 465.5 Q1100 450 1097 420 Z M295 1495 L553 1495 L750 1126 L608 1126 L295 1495 Z " />
<glyph glyph-name="ecircumflex" unicode="&#xea;" horiz-adv-x="1174" d="M815 592 Q803 685 747.5 732.5 Q692 780 596 780 Q500 780 442.5 732.5 Q385 685 369 592 L815 592 Z M1097 420 L360 420 Q377 314 437 261.5 Q497 209 600 209 Q678 209 734.5 239 Q791 269 829 330 L1059 215 Q979 86 865 23.5 Q751 -39 594 -39 Q356 -39 217 103 Q78 245 78 485 Q78 716 223.5 865 Q369 1014 596 1014 Q830 1014 966 874.5 Q1102 735 1102 494 Q1102 481 1101 465.5 Q1100 450 1097 420 Z M273 1126 L469 1495 L707 1495 L903 1126 L762 1126 L588 1343 L412 1126 L273 1126 Z " />
<glyph glyph-name="edieresis" unicode="&#xeb;" horiz-adv-x="1174" d="M815 592 Q803 685 747.5 732.5 Q692 780 596 780 Q500 780 442.5 732.5 Q385 685 369 592 L815 592 Z M1097 420 L360 420 Q377 314 437 261.5 Q497 209 600 209 Q678 209 734.5 239 Q791 269 829 330 L1059 215 Q979 86 865 23.5 Q751 -39 594 -39 Q356 -39 217 103 Q78 245 78 485 Q78 716 223.5 865 Q369 1014 596 1014 Q830 1014 966 874.5 Q1102 735 1102 494 Q1102 481 1101 465.5 Q1100 450 1097 420 Z M645 1309 Q645 1360 684.5 1399 Q724 1438 776 1438 Q830 1438 867.5 1400 Q905 1362 905 1309 Q905 1252 868.5 1215 Q832 1178 776 1178 Q721 1178 683 1215.5 Q645 1253 645 1309 Z M271 1309 Q271 1360 310.5 1399 Q350 1438 402 1438 Q455 1438 493 1400 Q531 1362 531 1309 Q531 1252 494 1215 Q457 1178 402 1178 Q346 1178 308.5 1215.5 Q271 1253 271 1309 Z " />
<glyph glyph-name="iacute" unicode="&#xed;" horiz-adv-x="584" d="M150 0 L150 981 L434 981 L434 0 L150 0 Z M586 1495 L273 1126 L131 1126 L328 1495 L586 1495 Z " />
<glyph glyph-name="igrave" unicode="&#xec;" horiz-adv-x="584" d="M150 0 L150 981 L434 981 L434 0 L150 0 Z M0 1495 L258 1495 L455 1126 L313 1126 L0 1495 Z " />
<glyph glyph-name="icircumflex" unicode="&#xee;" horiz-adv-x="584" d="M150 0 L150 981 L434 981 L434 0 L150 0 Z M-22 1126 L174 1495 L412 1495 L608 1126 L467 1126 L293 1343 L117 1126 L-22 1126 Z " />
<glyph glyph-name="idieresis" unicode="&#xef;" horiz-adv-x="584" d="M150 0 L150 981 L434 981 L434 0 L150 0 Z M350 1309 Q350 1360 389.5 1399 Q429 1438 481 1438 Q535 1438 572.5 1400 Q610 1362 610 1309 Q610 1252 573.5 1215 Q537 1178 481 1178 Q426 1178 388 1215.5 Q350 1253 350 1309 Z M-24 1309 Q-24 1360 15.5 1399 Q55 1438 107 1438 Q160 1438 198 1400 Q236 1362 236 1309 Q236 1252 199 1215 Q162 1178 107 1178 Q51 1178 13.5 1215.5 Q-24 1253 -24 1309 Z " />
<glyph glyph-name="ntilde" unicode="&#xf1;" horiz-adv-x="1266" d="M139 0 L139 981 L418 981 L418 827 Q495 923 583.5 968.5 Q672 1014 780 1014 Q894 1014 971.5 975.5 Q1049 937 1094 858 Q1116 817 1125.5 765.5 Q1135 714 1135 604 L1135 573 L1135 0 L850 0 L850 485 Q850 666 808 724 Q766 782 664 782 Q605 782 555.5 757.5 Q506 733 473 688 Q447 653 435.5 608 Q424 563 424 471 L424 432 L424 0 L139 0 Z M950 1446 Q922 1319 872 1261.5 Q822 1204 742 1204 Q721 1204 703 1206.5 Q685 1209 667 1215 L580 1241 Q559 1247 544 1249 Q529 1251 514 1251 Q480 1251 459 1232.5 Q438 1214 426 1174 L316 1174 Q342 1296 391.5 1352.5 Q441 1409 520 1409 Q538 1409 560 1405.5 Q582 1402 606 1395 L699 1370 Q711 1366 724.5 1364 Q738 1362 754 1362 Q787 1362 808 1382.5 Q829 1403 840 1446 L950 1446 Z " />
<glyph glyph-name="oacute" unicode="&#xf3;" horiz-adv-x="1247" d="M881 489 Q881 609 811 680.5 Q741 752 623 752 Q505 752 436 681 Q367 610 367 489 Q367 369 436 297 Q505 225 623 225 Q740 225 810.5 297 Q881 369 881 489 Z M1171 487 Q1171 261 1016.5 111 Q862 -39 625 -39 Q386 -39 231 111 Q76 261 76 487 Q76 712 232 863 Q388 1014 625 1014 Q863 1014 1017 865 Q1171 716 1171 487 Z M918 1495 L605 1126 L463 1126 L660 1495 L918 1495 Z " />
<glyph glyph-name="ograve" unicode="&#xf2;" horiz-adv-x="1247" d="M881 489 Q881 609 811 680.5 Q741 752 623 752 Q505 752 436 681 Q367 610 367 489 Q367 369 436 297 Q505 225 623 225 Q740 225 810.5 297 Q881 369 881 489 Z M1171 487 Q1171 261 1016.5 111 Q862 -39 625 -39 Q386 -39 231 111 Q76 261 76 487 Q76 712 232 863 Q388 1014 625 1014 Q863 1014 1017 865 Q1171 716 1171 487 Z M332 1495 L590 1495 L787 1126 L645 1126 L332 1495 Z " />
<glyph glyph-name="ocircumflex" unicode="&#xf4;" horiz-adv-x="1247" d="M881 489 Q881 609 811 680.5 Q741 752 623 752 Q505 752 436 681 Q367 610 367 489 Q367 369 436 297 Q505 225 623 225 Q740 225 810.5 297 Q881 369 881 489 Z M1171 487 Q1171 261 1016.5 111 Q862 -39 625 -39 Q386 -39 231 111 Q76 261 76 487 Q76 712 232 863 Q388 1014 625 1014 Q863 1014 1017 865 Q1171 716 1171 487 Z M310 1126 L506 1495 L744 1495 L940 1126 L799 1126 L625 1343 L449 1126 L310 1126 Z " />
<glyph glyph-name="odieresis" unicode="&#xf6;" horiz-adv-x="1247" d="M881 489 Q881 609 811 680.5 Q741 752 623 752 Q505 752 436 681 Q367 610 367 489 Q367 369 436 297 Q505 225 623 225 Q740 225 810.5 297 Q881 369 881 489 Z M1171 487 Q1171 261 1016.5 111 Q862 -39 625 -39 Q386 -39 231 111 Q76 261 76 487 Q76 712 232 863 Q388 1014 625 1014 Q863 1014 1017 865 Q1171 716 1171 487 Z M682 1309 Q682 1360 721.5 1399 Q761 1438 813 1438 Q867 1438 904.5 1400 Q942 1362 942 1309 Q942 1252 905.5 1215 Q869 1178 813 1178 Q758 1178 720 1215.5 Q682 1253 682 1309 Z M308 1309 Q308 1360 347.5 1399 Q387 1438 439 1438 Q492 1438 530 1400 Q568 1362 568 1309 Q568 1252 531 1215 Q494 1178 439 1178 Q383 1178 345.5 1215.5 Q308 1253 308 1309 Z " />
<glyph glyph-name="otilde" unicode="&#xf5;" horiz-adv-x="1247" d="M881 489 Q881 609 811 680.5 Q741 752 623 752 Q505 752 436 681 Q367 610 367 489 Q367 369 436 297 Q505 225 623 225 Q740 225 810.5 297 Q881 369 881 489 Z M1171 487 Q1171 261 1016.5 111 Q862 -39 625 -39 Q386 -39 231 111 Q76 261 76 487 Q76 712 232 863 Q388 1014 625 1014 Q863 1014 1017 865 Q1171 716 1171 487 Z M942 1446 Q914 1319 864 1261.5 Q814 1204 734 1204 Q713 1204 695 1206.5 Q677 1209 659 1215 L572 1241 Q551 1247 536 1249 Q521 1251 506 1251 Q472 1251 451 1232.5 Q430 1214 418 1174 L308 1174 Q334 1296 383.5 1352.5 Q433 1409 512 1409 Q530 1409 552 1405.5 Q574 1402 598 1395 L691 1370 Q703 1366 716.5 1364 Q730 1362 746 1362 Q779 1362 800 1382.5 Q821 1403 832 1446 L942 1446 Z " />
<glyph glyph-name="uacute" unicode="&#xfa;" horiz-adv-x="1268" d="M418 981 L418 465 Q418 335 468.5 279 Q519 223 633 223 Q746 223 797 279.5 Q848 336 848 465 L848 981 L1133 981 L1133 465 Q1133 206 1012 83.5 Q891 -39 637 -39 Q378 -39 256.5 83 Q135 205 135 465 L135 981 L418 981 Z M928 1495 L615 1126 L473 1126 L670 1495 L928 1495 Z " />
<glyph glyph-name="ugrave" unicode="&#xf9;" horiz-adv-x="1268" d="M418 981 L418 465 Q418 335 468.5 279 Q519 223 633 223 Q746 223 797 279.5 Q848 336 848 465 L848 981 L1133 981 L1133 465 Q1133 206 1012 83.5 Q891 -39 637 -39 Q378 -39 256.5 83 Q135 205 135 465 L135 981 L418 981 Z M342 1495 L600 1495 L797 1126 L655 1126 L342 1495 Z " />
<glyph glyph-name="ucircumflex" unicode="&#xfb;" horiz-adv-x="1268" d="M418 981 L418 465 Q418 335 468.5 279 Q519 223 633 223 Q746 223 797 279.5 Q848 336 848 465 L848 981 L1133 981 L1133 465 Q1133 206 1012 83.5 Q891 -39 637 -39 Q378 -39 256.5 83 Q135 205 135 465 L135 981 L418 981 Z M320 1126 L516 1495 L754 1495 L950 1126 L809 1126 L635 1343 L459 1126 L320 1126 Z " />
<glyph glyph-name="udieresis" unicode="&#xfc;" horiz-adv-x="1268" d="M418 981 L418 465 Q418 335 468.5 279 Q519 223 633 223 Q746 223 797 279.5 Q848 336 848 465 L848 981 L1133 981 L1133 465 Q1133 206 1012 83.5 Q891 -39 637 -39 Q378 -39 256.5 83 Q135 205 135 465 L135 981 L418 981 Z M692 1309 Q692 1360 731.5 1399 Q771 1438 823 1438 Q877 1438 914.5 1400 Q952 1362 952 1309 Q952 1252 915.5 1215 Q879 1178 823 1178 Q768 1178 730 1215.5 Q692 1253 692 1309 Z M318 1309 Q318 1360 357.5 1399 Q397 1438 449 1438 Q502 1438 540 1400 Q578 1362 578 1309 Q578 1252 541 1215 Q504 1178 449 1178 Q393 1178 355.5 1215.5 Q318 1253 318 1309 Z " />
<glyph glyph-name="dagger" unicode="&#x2020;" horiz-adv-x="1176" d="M446 -446 L446 705 L66 705 L66 961 L446 961 L446 1464 L729 1464 L729 961 L1110 961 L1110 705 L729 705 L729 -446 L446 -446 Z " />
<glyph glyph-name="degree" unicode="&#xb0;" horiz-adv-x="674" d="M338 1335 Q265 1335 213.5 1284 Q162 1233 162 1161 Q162 1087 213 1036 Q264 985 338 985 Q410 985 461 1037 Q512 1089 512 1161 Q512 1233 461 1284 Q410 1335 338 1335 Z M338 1464 Q464 1464 552.5 1374.5 Q641 1285 641 1159 Q641 1034 552 945 Q463 856 336 856 Q210 856 122.5 944 Q35 1032 35 1159 Q35 1286 123.5 1375 Q212 1464 338 1464 Z " />
<glyph glyph-name="cent" unicode="&#xa2;" horiz-adv-x="1255" d="M961 256 Q912 230 858.5 213.5 Q805 197 745 190 L745 -12 L633 -12 L633 190 Q410 229 292 369 Q174 509 174 733 Q174 933 298.5 1071 Q423 1209 633 1241 L633 1407 L745 1407 L745 1243 Q801 1237 854 1222 Q907 1207 961 1182 L958 895 Q914 941 855.5 965 Q797 989 729 989 Q609 989 537 916.5 Q465 844 465 723 Q465 599 538.5 526 Q612 453 737 453 Q807 453 860.5 477 Q914 501 958 553 L961 256 Z " />
<glyph glyph-name="sterling" unicode="&#xa3;" horiz-adv-x="1255" d="M487 274 L504 274 Q569 274 683.5 229 Q798 184 854 184 Q909 184 951 211.5 Q993 239 1026 295 L1180 131 Q1126 45 1052 1 Q978 -43 889 -43 Q775 -43 618 13.5 Q461 70 422 70 Q370 70 315 38 Q260 6 215 -51 L59 102 Q127 189 193 232 Q259 275 336 283 Q359 306 369 334 Q379 362 379 410 Q379 461 365.5 505 Q352 549 324 590 L98 590 L98 733 L260 733 Q206 813 180 888 Q154 963 154 1036 Q154 1224 307.5 1351.5 Q461 1479 692 1479 Q903 1479 1042.5 1359 Q1182 1239 1188 1055 L911 1018 Q904 1124 845 1179.5 Q786 1235 682 1235 Q582 1235 519.5 1180.5 Q457 1126 457 1040 Q457 969 540 774 Q551 747 557 733 L924 733 L924 590 L609 590 Q611 563 612.5 546.5 Q614 530 614 520 Q614 449 585 392 Q556 335 487 274 Z " />
<glyph glyph-name="section" unicode="&#xa7;" horiz-adv-x="1176" d="M414 874 Q290 910 230 980.5 Q170 1051 170 1159 Q170 1309 292.5 1404 Q415 1499 612 1499 Q798 1499 906 1409.5 Q1014 1320 1014 1165 L1014 1137 L748 1137 Q743 1218 702 1256 Q661 1294 575 1294 Q510 1294 468 1258 Q426 1222 426 1165 Q426 1108 471 1063.5 Q516 1019 612 981 Q909 866 993 775.5 Q1077 685 1077 545 Q1077 416 999.5 328 Q922 240 774 201 Q887 162 948.5 81 Q1010 0 1010 -111 Q1010 -269 894 -361 Q778 -453 575 -453 Q379 -453 260 -354 Q141 -255 141 -94 Q141 -90 142 -79.5 Q143 -69 143 -63 L408 -64 Q409 -154 452.5 -201 Q496 -248 580 -248 Q660 -248 707 -207 Q754 -166 754 -98 Q754 15 529 106 Q502 117 487 123 Q264 215 185 302.5 Q106 390 106 528 Q106 661 184 748.5 Q262 836 414 874 Z M588 326 Q677 326 740 386.5 Q803 447 803 535 Q803 622 740 683.5 Q677 745 588 745 Q499 745 436 683.5 Q373 622 373 535 Q373 447 435.5 386.5 Q498 326 588 326 Z " />
<glyph glyph-name="bullet" unicode="&#x2022;" horiz-adv-x="1208" d="M307 762 Q307 885 394 971 Q481 1057 604 1057 Q726 1057 812.5 970.5 Q899 884 899 762 Q899 640 811.5 552.5 Q724 465 602 465 Q479 465 393 552 Q307 639 307 762 Z " />
<glyph glyph-name="paragraph" unicode="&#xb6;" horiz-adv-x="1024" d="M983 1479 L983 1368 L870 1368 L870 0 L719 0 L719 1368 L561 1368 L561 0 L408 0 L408 784 Q241 790 141 885 Q41 980 41 1130 Q41 1288 148 1383.5 Q255 1479 432 1479 L983 1479 Z " />
<glyph glyph-name="germandbls" unicode="&#xdf;" horiz-adv-x="1235" d="M139 0 L139 1034 Q139 1160 149.5 1227 Q160 1294 184 1348 Q233 1452 344.5 1510.5 Q456 1569 610 1569 Q831 1569 951 1468 Q1071 1367 1071 1182 Q1071 1070 1019.5 993.5 Q968 917 844 846 Q992 827 1074.5 722 Q1157 617 1157 446 Q1157 222 1025.5 99.5 Q894 -23 651 -23 Q626 -23 599 -21.5 Q572 -20 543 -18 L543 211 Q558 210 573.5 209.5 Q589 209 610 209 Q736 209 803 273 Q870 337 870 457 Q870 586 795.5 650.5 Q721 715 571 715 Q571 715 568 714 Q555 713 543 713 L543 936 L561 936 Q675 936 730.5 990 Q786 1044 786 1153 Q786 1236 740 1284.5 Q694 1333 614 1333 Q505 1333 464.5 1248.5 Q424 1164 424 836 L424 725 L424 0 L139 0 Z " />
<glyph glyph-name="registered" unicode="&#xae;" horiz-adv-x="1706" d="M745 1034 L745 795 L844 795 Q932 795 973 823 Q1014 851 1014 911 Q1014 974 970 1004 Q926 1034 834 1034 L745 1034 Z M545 1161 L868 1161 Q1044 1161 1132.5 1101.5 Q1221 1042 1221 924 Q1221 842 1173 784 Q1125 726 1040 705 L1225 336 L1001 336 L844 674 L745 674 L745 336 L545 336 L545 1161 Z M854 1356 Q727 1356 618 1311.5 Q509 1267 422 1180 Q331 1089 282 973.5 Q233 858 233 735 Q233 611 279 499.5 Q325 388 412 301 Q501 210 615 161.5 Q729 113 852 113 Q972 113 1085.5 160 Q1199 207 1292 295 Q1379 379 1427 491 Q1475 603 1475 723 Q1475 856 1430.5 968 Q1386 1080 1298 1169 Q1208 1262 1095.5 1309 Q983 1356 854 1356 Z M852 1479 Q1006 1479 1142.5 1421.5 Q1279 1364 1386 1255 Q1489 1151 1543 1017 Q1597 883 1597 733 Q1597 581 1541 445.5 Q1485 310 1378 207 Q1271 102 1134.5 46 Q998 -10 852 -10 Q703 -10 567 48 Q431 106 324 215 Q220 320 165.5 453.5 Q111 587 111 733 Q111 835 138 931.5 Q165 1028 219 1120 Q320 1290 486 1384.5 Q652 1479 852 1479 Z " />
<glyph glyph-name="copyright" unicode="&#xa9;" horiz-adv-x="1706" d="M1212 897 L1024 897 Q1016 967 971 1005.5 Q926 1044 852 1044 Q761 1044 709 962.5 Q657 881 657 735 Q657 588 709 511 Q761 434 860 434 Q933 434 977 476 Q1021 518 1030 595 L1223 596 Q1215 457 1114 373 Q1013 289 854 289 Q668 289 560.5 407 Q453 525 453 729 Q453 935 562.5 1057.5 Q672 1180 856 1180 Q1008 1180 1106.5 1102 Q1205 1024 1212 897 Z M854 1356 Q726 1356 614.5 1310 Q503 1264 416 1176 Q327 1086 280 972.5 Q233 859 233 735 Q233 610 280 498 Q327 386 416 297 Q504 209 617 162 Q730 115 854 115 Q978 115 1091.5 162 Q1205 209 1296 299 Q1384 385 1429.5 496 Q1475 607 1475 735 Q1475 861 1428.5 973.5 Q1382 1086 1294 1174 Q1205 1263 1093 1309.5 Q981 1356 854 1356 Z M852 1479 Q1004 1479 1139.5 1423 Q1275 1367 1382 1260 Q1487 1155 1542 1019.5 Q1597 884 1597 733 Q1597 581 1542.5 449 Q1488 317 1382 213 Q1271 105 1134 47.5 Q997 -10 852 -10 Q705 -10 571.5 46.5 Q438 103 330 211 Q223 317 167 451.5 Q111 586 111 733 Q111 882 167 1017.5 Q223 1153 330 1262 Q435 1368 568 1423.5 Q701 1479 852 1479 Z " />
<glyph glyph-name="trademark" unicode="&#x2122;" horiz-adv-x="1706" d="M803 1462 L999 1462 L1126 1130 L1249 1462 L1446 1462 L1446 915 L1311 915 L1311 1325 L1157 915 L1096 915 L938 1325 L938 915 L803 915 L803 1462 Z M207 1462 L692 1462 L692 1350 L524 1350 L524 915 L375 915 L375 1350 L207 1350 L207 1462 Z " />
<glyph glyph-name="acute" unicode="&#xb4;" horiz-adv-x="1024" d="M805 1495 L492 1126 L350 1126 L547 1495 L805 1495 Z " />
<glyph glyph-name="dieresis" unicode="&#xa8;" horiz-adv-x="1024" d="M569 1309 Q569 1360 608.5 1399 Q648 1438 700 1438 Q754 1438 791.5 1400 Q829 1362 829 1309 Q829 1252 792.5 1215 Q756 1178 700 1178 Q645 1178 607 1215.5 Q569 1253 569 1309 Z M195 1309 Q195 1360 234.5 1399 Q274 1438 326 1438 Q379 1438 417 1400 Q455 1362 455 1309 Q455 1252 418 1215 Q381 1178 326 1178 Q270 1178 232.5 1215.5 Q195 1253 195 1309 Z " />
<glyph glyph-name="notequal" unicode="&#x2260;" horiz-adv-x="1706" d="M1198 1233 L1346 1114 L1192 922 L1452 922 L1452 731 L1063 731 L872 492 L1452 492 L1452 299 L745 299 L500 -10 L352 109 L506 299 L254 299 L254 492 L631 492 L821 731 L254 731 L254 922 L950 922 L1198 1233 Z " />
<glyph glyph-name="AE" unicode="&#xc6;" horiz-adv-x="2038" d="M961 559 L797 1030 Q787 1062 776 1114 Q765 1166 756 1226 Q746 1165 734.5 1111.5 Q723 1058 713 1024 L555 559 L961 559 Z M1135 0 L1034 317 L467 317 L365 0 L29 0 L586 1464 L1542 1464 L1628 1200 L1053 1200 L1149 891 L1702 891 L1790 635 L1237 635 L1356 266 L1933 266 L2021 0 L1135 0 Z " />
<glyph glyph-name="Oslash" unicode="&#xd8;" horiz-adv-x="1763" d="M1174 1118 Q1121 1168 1043 1195.5 Q965 1223 877 1223 Q679 1223 550.5 1079.5 Q422 936 422 717 Q422 643 441.5 576.5 Q461 510 504 438 L1174 1118 Z M598 336 Q662 285 729.5 262.5 Q797 240 883 240 Q1084 240 1212.5 380.5 Q1341 521 1341 739 Q1341 813 1321 879 Q1301 945 1257 1014 L598 336 Z M199 -70 L98 23 L293 223 Q192 341 145 463.5 Q98 586 98 731 Q98 886 157.5 1026 Q217 1166 328 1274 Q439 1383 583.5 1441 Q728 1499 885 1499 Q1015 1499 1136.5 1456 Q1258 1413 1380 1323 L1573 1520 L1671 1434 L1473 1235 Q1569 1126 1617 1002.5 Q1665 879 1665 737 Q1665 600 1620 475.5 Q1575 351 1487 246 Q1374 111 1217 38 Q1060 -35 883 -35 Q754 -35 636 4 Q518 43 393 127 L199 -70 Z " />
<glyph glyph-name="infinity" unicode="&#x221e;" horiz-adv-x="1706" d="M942 561 Q987 486 1048.5 448 Q1110 410 1188 410 Q1282 410 1340.5 465.5 Q1399 521 1399 610 Q1399 696 1345 752.5 Q1291 809 1210 809 Q1136 809 1074 752 Q1012 695 942 561 Z M766 659 Q720 735 659 772 Q598 809 520 809 Q427 809 368 752.5 Q309 696 309 608 Q309 523 363 466.5 Q417 410 498 410 Q573 410 636 468 Q699 526 766 659 Z M858 457 Q789 324 711 261.5 Q633 199 537 199 Q398 199 301.5 316.5 Q205 434 205 610 Q205 794 290.5 907 Q376 1020 514 1020 Q607 1020 683.5 961.5 Q760 903 848 762 Q916 894 996 958 Q1076 1022 1171 1022 Q1310 1022 1406.5 904 Q1503 786 1503 610 Q1503 427 1417 314 Q1331 201 1194 201 Q1101 201 1025.5 257.5 Q950 314 858 457 Z " />
<glyph glyph-name="plusminus" unicode="&#xb1;" horiz-adv-x="1706" d="M254 197 L1452 197 L1452 -2 L254 -2 L254 197 Z M752 1223 L954 1223 L954 897 L1452 897 L1452 698 L954 698 L954 373 L752 373 L752 698 L254 698 L254 897 L752 897 L752 1223 Z " />
<glyph glyph-name="lessequal" unicode="&#x2264;" horiz-adv-x="1706" d="M258 195 L1450 195 L1450 -2 L258 -2 L258 195 Z M1448 1241 L1448 1032 L614 768 L1448 506 L1448 297 L258 682 L258 856 L1448 1241 Z " />
<glyph glyph-name="greaterequal" unicode="&#x2265;" horiz-adv-x="1706" d="M258 195 L1450 195 L1450 -2 L258 -2 L258 195 Z M260 1241 L1448 856 L1448 682 L260 297 L260 506 L1092 768 L260 1032 L260 1241 Z " />
<glyph glyph-name="yen" unicode="&#xa5;" horiz-adv-x="1255" d="M489 0 L489 537 L14 537 L14 705 L461 705 L362 864 L14 864 L14 1032 L258 1032 L-6 1452 L326 1452 L553 1053 Q573 1016 593 968 Q613 920 631 864 Q647 919 666 965.5 Q685 1012 709 1053 L938 1452 L1268 1452 L1006 1032 L1237 1032 L1237 864 L899 864 L801 705 L1237 705 L1237 537 L774 537 L774 0 L489 0 Z " />
<glyph glyph-name="mu" unicode="&#xb5;" horiz-adv-x="1249" d="M205 1092 L494 1092 L418 657 Q403 577 395 505.5 Q387 434 387 389 Q387 296 429 250.5 Q471 205 557 205 Q657 205 712.5 287 Q768 369 805 578 L895 1092 L1184 1092 L991 0 L723 0 L741 117 Q699 39 647.5 3 Q596 -33 526 -33 Q459 -33 407 -3.5 Q355 26 313 88 L223 -438 L-63 -438 L205 1092 Z " />
<glyph glyph-name="partialdiff" unicode="&#x2202;" horiz-adv-x="1094" d="M762 662 Q781 761 791 850.5 Q801 940 801 1006 Q801 1106 775 1163.5 Q749 1221 705 1221 Q661 1221 559 1148 Q457 1075 399 1075 Q357 1075 328 1105 Q299 1135 299 1178 Q299 1242 385.5 1296 Q472 1350 596 1350 Q788 1350 905 1188.5 Q1022 1027 1022 756 Q1022 417 865.5 196 Q709 -25 469 -25 Q298 -25 187 89.5 Q76 204 76 381 Q76 579 192 710.5 Q308 842 479 842 Q581 842 649 798.5 Q717 755 762 662 Z M700 518 Q700 634 661.5 696 Q623 758 551 758 Q450 758 383.5 624 Q317 490 317 283 Q317 166 355.5 105.5 Q394 45 467 45 Q568 45 634 178.5 Q700 312 700 518 Z " />
<glyph glyph-name="summation" unicode="&#x2211;" horiz-adv-x="1470" d="M66 1473 L1374 1473 L1374 1208 L496 1208 L1116 563 L494 -127 L1427 -127 L1427 -393 L41 -393 L41 -221 L739 551 L66 1241 L66 1473 Z " />
<glyph glyph-name="product" unicode="&#x220f;" horiz-adv-x="1612" d="M150 1473 L1458 1473 L1458 -393 L1114 -393 L1114 1184 L494 1184 L494 -393 L150 -393 L150 1473 Z " />
<glyph glyph-name="pi" unicode="&#x3c0;" horiz-adv-x="1319" d="M1354 1092 L1315 868 L1139 868 L985 0 L698 0 L850 868 L612 868 L461 0 L174 0 L326 868 L301 868 Q246 868 217 837 Q188 806 178 738 L-35 737 Q-5 937 88 1014.5 Q181 1092 399 1092 L1354 1092 Z " />
<glyph glyph-name="integral" unicode="&#x222b;" horiz-adv-x="1186" d="M342 -252 Q444 -252 463 387 Q466 523 469 598 Q485 1106 592 1330 Q699 1554 920 1554 Q1018 1554 1077.5 1505 Q1137 1456 1137 1376 Q1137 1316 1099 1279.5 Q1061 1243 999 1243 Q953 1243 922 1267 Q891 1291 881 1335 Q876 1355 874 1389 Q871 1435 844 1436 Q745 1436 725 803 Q721 687 719 625 Q708 329 688 180.5 Q668 32 629 -70 Q573 -218 480.5 -295.5 Q388 -373 266 -373 Q170 -373 109.5 -324 Q49 -275 49 -197 Q49 -135 88 -98 Q127 -61 193 -61 Q243 -61 278 -92.5 Q313 -124 313 -164 Q313 -222 319 -237 Q325 -252 342 -252 Z " />
<glyph glyph-name="ordfeminine" unicode="&#xaa;" horiz-adv-x="938" d="M109 610 L793 610 L793 487 L109 487 L109 610 Z M463 1325 Q379 1325 332 1272 Q285 1219 285 1126 Q285 1033 331.5 980.5 Q378 928 461 928 Q544 928 590.5 979.5 Q637 1031 637 1124 Q637 1216 590 1270.5 Q543 1325 463 1325 Z M629 1374 L629 1475 L852 1475 L852 772 L625 772 L627 858 Q597 804 534.5 774.5 Q472 745 385 745 Q233 745 141 848 Q49 951 49 1122 Q49 1298 140 1397.5 Q231 1497 391 1497 Q474 1497 534 1466 Q594 1435 629 1374 Z " />
<glyph glyph-name="ordmasculine" unicode="&#xba;" horiz-adv-x="934" d="M109 610 L825 610 L825 487 L109 487 L109 610 Z M467 1298 Q382 1298 332.5 1250.5 Q283 1203 283 1122 Q283 1041 332.5 993.5 Q382 946 467 946 Q552 946 601.5 993.5 Q651 1041 651 1122 Q651 1203 601.5 1250.5 Q552 1298 467 1298 Z M469 1497 Q652 1497 769.5 1391 Q887 1285 887 1122 Q887 960 769 852.5 Q651 745 469 745 Q285 745 166 853 Q47 961 47 1122 Q47 1281 167.5 1389 Q288 1497 469 1497 Z " />
<glyph glyph-name="Omega" unicode="&#x3a9;" horiz-adv-x="1575" d="M1227 256 L1518 256 L1518 0 L909 0 L909 291 Q1035 377 1101 508.5 Q1167 640 1167 805 Q1167 1008 1065.5 1124.5 Q964 1241 786 1241 Q609 1241 507.5 1124.5 Q406 1008 406 805 Q406 641 472 508.5 Q538 376 664 291 L664 0 L55 0 L55 256 L346 256 Q220 377 159 516 Q98 655 98 819 Q98 1132 286 1320.5 Q474 1509 786 1509 Q1099 1509 1287 1320.5 Q1475 1132 1475 819 Q1475 655 1414 516 Q1353 377 1227 256 Z " />
<glyph glyph-name="ae" unicode="&#xe6;" horiz-adv-x="1841" d="M1755 420 L987 420 Q1004 314 1066.5 261.5 Q1129 209 1237 209 Q1317 209 1376 239 Q1435 269 1475 330 L1714 213 Q1634 89 1516 25 Q1398 -39 1249 -39 Q1133 -39 1043.5 0 Q954 39 885 121 Q809 47 696 4 Q583 -39 463 -39 Q287 -39 174 57 Q61 153 61 301 Q61 449 167.5 538 Q274 627 451 627 Q539 627 612 609.5 Q685 592 750 556 Q753 570 754.5 582.5 Q756 595 756 606 Q756 700 677.5 755.5 Q599 811 467 811 Q388 811 316.5 788.5 Q245 766 154 711 L154 940 Q230 980 314 999 Q398 1018 498 1018 Q627 1018 725 980.5 Q823 943 885 870 Q960 947 1044.5 982.5 Q1129 1018 1235 1018 Q1471 1018 1614 878.5 Q1757 739 1757 510 Q1757 480 1756.5 460 Q1756 440 1755 420 Z M1462 592 Q1450 684 1391.5 731 Q1333 778 1231 778 Q1131 778 1072.5 732 Q1014 686 995 592 L1462 592 Z M762 309 Q762 372 703 410.5 Q644 449 547 449 Q448 449 390 410 Q332 371 332 305 Q332 244 385.5 207 Q439 170 528 170 Q637 170 699.5 207.5 Q762 245 762 309 Z " />
<glyph glyph-name="oslash" unicode="&#xf8;" horiz-adv-x="1247" d="M467 270 Q503 247 540 236 Q577 225 629 225 Q744 225 814.5 298 Q885 371 885 489 Q885 524 876.5 555 Q868 586 848 623 L467 270 Z M770 713 Q732 733 695 742.5 Q658 752 614 752 Q501 752 433 680 Q365 608 365 485 Q365 451 371 421.5 Q377 392 389 365 L770 713 Z M115 -55 L43 45 L182 172 Q130 235 104 313.5 Q78 392 78 485 Q78 713 233 863.5 Q388 1014 625 1014 Q730 1014 811 988 Q892 962 977 903 L1120 1036 L1206 950 L1059 813 Q1118 742 1144.5 663 Q1171 584 1171 479 Q1171 260 1015.5 110.5 Q860 -39 625 -39 Q515 -39 423 -7.5 Q331 24 266 84 L115 -55 Z " />
<glyph glyph-name="questiondown" unicode="&#xbf;" horiz-adv-x="1186" d="M801 1327 Q801 1256 750.5 1206.5 Q700 1157 629 1157 Q557 1157 507 1206.5 Q457 1256 457 1327 Q457 1398 507 1447.5 Q557 1497 629 1497 Q700 1497 750.5 1447 Q801 1397 801 1327 Z M492 1032 L766 1032 L766 604 L678 604 Q575 604 519 546.5 Q463 489 463 383 Q463 288 504.5 237 Q546 186 625 186 Q705 186 746.5 234.5 Q788 283 788 375 Q788 380 787 390 Q786 400 786 406 L1069 406 L1069 373 Q1069 187 942.5 74 Q816 -39 608 -39 Q406 -39 288 77 Q170 193 170 393 Q170 547 252 644.5 Q334 742 492 774 L492 1032 Z " />
<glyph glyph-name="exclamdown" unicode="&#xa1;" horiz-adv-x="688" d="M201 1004 L485 1004 L485 -39 L201 -39 L201 1004 Z M172 1327 Q172 1397 222.5 1447 Q273 1497 344 1497 Q416 1497 465 1447.5 Q514 1398 514 1327 Q514 1256 464.5 1206.5 Q415 1157 344 1157 Q272 1157 222 1206.5 Q172 1256 172 1327 Z " />
<glyph glyph-name="logicalnot" unicode="&#xac;" horiz-adv-x="1706" d="M254 864 L1452 864 L1452 362 L1253 362 L1253 668 L254 668 L254 864 Z " />
<glyph glyph-name="radical" unicode="&#x221a;" horiz-adv-x="1346" d="M1141 1694 L1348 1694 L1348 1565 L1245 1565 L653 -41 L553 -41 L242 817 L102 766 L72 879 L403 995 L639 334 L1141 1694 Z " />
<glyph glyph-name="florin" unicode="&#x192;" horiz-adv-x="1255" d="M958 737 L756 737 L668 25 Q634 -248 551.5 -349.5 Q469 -451 297 -451 Q254 -451 216.5 -440 Q179 -429 139 -406 L184 -201 Q208 -211 228 -216 Q248 -221 264 -221 Q333 -221 363 -170.5 Q393 -120 416 86 L492 737 L303 737 L322 948 L518 948 L535 1100 Q558 1298 630.5 1388.5 Q703 1479 838 1479 Q887 1479 938 1468.5 Q989 1458 1042 1438 L1024 1235 Q979 1255 957.5 1261.5 Q936 1268 918 1268 Q862 1268 835.5 1228.5 Q809 1189 793 1057 L780 948 L981 948 L958 737 Z " />
<glyph glyph-name="approxequal" unicode="&#x2248;" horiz-adv-x="1706" d="M1530 596 L1530 377 Q1424 305 1332 271.5 Q1240 238 1151 238 Q1056 238 864.5 304.5 Q673 371 563 371 Q479 371 388.5 334 Q298 297 178 213 L178 432 Q289 505 384.5 540 Q480 575 565 575 Q689 575 880.5 509.5 Q1072 444 1155 444 Q1241 444 1329 479.5 Q1417 515 1530 596 Z M1530 1008 L1530 788 Q1424 717 1333.5 684 Q1243 651 1153 651 Q1059 651 867 716.5 Q675 782 563 782 Q481 782 393 747 Q305 712 178 625 L178 844 Q285 915 382 951 Q479 987 565 987 Q690 987 881.5 921.5 Q1073 856 1155 856 Q1239 856 1326 891 Q1413 926 1530 1008 Z " />
<glyph glyph-name="increment" unicode="&#x2206;" horiz-adv-x="1427" d="M713 1110 L387 256 L1040 256 L713 1110 Z M563 1473 L864 1473 L1427 0 L0 0 L563 1473 Z " />
<glyph glyph-name="guillemotleft" unicode="&#xab;" horiz-adv-x="1059" d="M573 836 L297 485 L567 139 L418 33 L63 487 L420 942 L573 836 Z M995 836 L717 485 L987 139 L838 33 L485 487 L842 942 L995 836 Z " />
<glyph glyph-name="guillemotright" unicode="&#xbb;" horiz-adv-x="1059" d="M485 836 L639 942 L995 487 L641 33 L494 139 L762 485 L485 836 Z M63 836 L217 942 L573 487 L221 33 L72 139 L342 485 L63 836 Z " />
<glyph glyph-name="ellipsis" unicode="&#x2026;" horiz-adv-x="2048" d="M168 141 Q168 213 218.5 264 Q269 315 340 315 Q411 315 461.5 264 Q512 213 512 141 Q512 70 462 20.5 Q412 -29 340 -29 Q269 -29 218.5 21 Q168 71 168 141 Z M850 141 Q850 213 900.5 264 Q951 315 1022 315 Q1093 315 1143.5 264 Q1194 213 1194 141 Q1194 70 1144 20.5 Q1094 -29 1022 -29 Q951 -29 900.5 21 Q850 71 850 141 Z M1534 141 Q1534 213 1584.5 264 Q1635 315 1706 315 Q1777 315 1827.5 264 Q1878 213 1878 141 Q1878 70 1828 20.5 Q1778 -29 1706 -29 Q1635 -29 1584.5 21 Q1534 71 1534 141 Z " />
<glyph glyph-name="nbspace" unicode="&#xa0;" horiz-adv-x="1255" d="" />
<glyph glyph-name="Agrave" unicode="&#xc0;" horiz-adv-x="1460" d="M922 557 L758 1030 Q751 1051 740 1102 Q729 1153 717 1227 Q704 1156 692 1099.5 Q680 1043 674 1024 L516 557 L922 557 Z M-10 0 L547 1464 L905 1464 L1470 0 L1114 0 L995 311 L428 311 L326 0 L-10 0 Z M438 1972 L696 1972 L893 1603 L751 1603 L438 1972 Z " />
<glyph glyph-name="Atilde" unicode="&#xc3;" horiz-adv-x="1460" d="M922 557 L758 1030 Q751 1051 740 1102 Q729 1153 717 1227 Q704 1156 692 1099.5 Q680 1043 674 1024 L516 557 L922 557 Z M-10 0 L547 1464 L905 1464 L1470 0 L1114 0 L995 311 L428 311 L326 0 L-10 0 Z M1048 1923 Q1020 1796 970 1738.5 Q920 1681 840 1681 Q819 1681 801 1683.5 Q783 1686 765 1692 L678 1718 Q657 1724 642 1726 Q627 1728 612 1728 Q578 1728 557 1709.5 Q536 1691 524 1651 L414 1651 Q440 1773 489.5 1829.5 Q539 1886 618 1886 Q636 1886 658 1882.5 Q680 1879 704 1872 L797 1847 Q809 1843 822.5 1841 Q836 1839 852 1839 Q885 1839 906 1859.5 Q927 1880 938 1923 L1048 1923 Z " />
<glyph glyph-name="Otilde" unicode="&#xd5;" horiz-adv-x="1763" d="M1663 729 Q1663 572 1604.5 432 Q1546 292 1436 186 Q1322 77 1179 19 Q1036 -39 883 -39 Q749 -39 620.5 6.5 Q492 52 385 137 Q247 247 173.5 400 Q100 553 100 729 Q100 887 158 1025.5 Q216 1164 328 1272 Q438 1379 583.5 1438 Q729 1497 883 1497 Q1036 1497 1180.5 1438 Q1325 1379 1436 1272 Q1547 1164 1605 1025 Q1663 886 1663 729 Z M883 240 Q1082 240 1211.5 379.5 Q1341 519 1341 729 Q1341 937 1210 1079 Q1079 1221 883 1221 Q684 1221 553 1079.5 Q422 938 422 729 Q422 517 551 378.5 Q680 240 883 240 Z M1200 1923 Q1172 1796 1122 1738.5 Q1072 1681 992 1681 Q971 1681 953 1683.5 Q935 1686 917 1692 L830 1718 Q809 1724 794 1726 Q779 1728 764 1728 Q730 1728 709 1709.5 Q688 1691 676 1651 L566 1651 Q592 1773 641.5 1829.5 Q691 1886 770 1886 Q788 1886 810 1882.5 Q832 1879 856 1872 L949 1847 Q961 1843 974.5 1841 Q988 1839 1004 1839 Q1037 1839 1058 1859.5 Q1079 1880 1090 1923 L1200 1923 Z " />
<glyph glyph-name="OE" unicode="&#x152;" horiz-adv-x="2339" d="M1346 1464 L2208 1464 L2208 1200 L1659 1200 L1659 899 L2208 899 L2208 633 L1659 633 L1659 266 L2208 266 L2208 0 L1346 0 L1343 166 Q1268 63 1155 14 Q1042 -35 881 -35 Q748 -35 623.5 9.5 Q499 54 395 139 Q261 251 188 405 Q115 559 115 731 Q115 884 172.5 1023.5 Q230 1163 340 1276 Q450 1388 584 1442.5 Q718 1497 881 1497 Q1033 1497 1147.5 1447 Q1262 1397 1348 1292 L1346 1464 Z M889 240 Q1090 240 1214.5 375 Q1339 510 1339 729 Q1339 945 1213.5 1084 Q1088 1223 889 1223 Q695 1223 566.5 1080.5 Q438 938 438 729 Q438 516 564 378 Q690 240 889 240 Z " />
<glyph glyph-name="oe" unicode="&#x153;" horiz-adv-x="2050" d="M1651 592 Q1638 684 1579.5 732 Q1521 780 1419 780 Q1320 780 1261 733 Q1202 686 1184 592 L1651 592 Z M1943 420 L1176 420 Q1192 314 1254.5 261.5 Q1317 209 1425 209 Q1506 209 1564.5 239 Q1623 269 1663 330 L1905 215 Q1825 90 1705.5 25.5 Q1586 -39 1432 -39 Q1288 -39 1180.5 8 Q1073 55 1018 141 Q940 47 844.5 4 Q749 -39 616 -39 Q383 -39 229.5 111.5 Q76 262 76 487 Q76 713 232.5 863.5 Q389 1014 627 1014 Q761 1014 855 968 Q949 922 1016 825 Q1085 923 1180.5 968.5 Q1276 1014 1413 1014 Q1659 1014 1802.5 878 Q1946 742 1946 510 Q1946 480 1945.5 460.5 Q1945 441 1943 420 Z M881 487 Q881 608 810.5 680 Q740 752 623 752 Q505 752 435 680 Q365 608 365 487 Q365 367 435 295 Q505 223 623 223 Q740 223 810.5 295 Q881 367 881 487 Z " />
<glyph glyph-name="endash" unicode="&#x2013;" horiz-adv-x="1024" d="M0 393 L0 584 L1024 584 L1024 393 L0 393 Z " />
<glyph glyph-name="emdash" unicode="&#x2014;" horiz-adv-x="2048" d="M0 393 L0 584 L2048 584 L2048 393 L0 393 Z " />
<glyph glyph-name="quotedblleft" unicode="&#x201c;" horiz-adv-x="1090" d="M1038 1464 L848 838 L539 838 L848 1464 L1038 1464 Z M551 1464 L360 838 L51 838 L360 1464 L551 1464 Z " />
<glyph glyph-name="quotedblright" unicode="&#x201d;" horiz-adv-x="1090" d="M51 838 L244 1464 L551 1464 L242 838 L51 838 Z M539 838 L729 1464 L1038 1464 L729 838 L539 838 Z " />
<glyph glyph-name="quoteleft" unicode="&#x2018;" horiz-adv-x="629" d="M563 1464 L373 838 L63 838 L373 1464 L563 1464 Z " />
<glyph glyph-name="quoteright" unicode="&#x2019;" horiz-adv-x="629" d="M63 838 L256 1464 L563 1464 L254 838 L63 838 Z " />
<glyph glyph-name="divide" unicode="&#xf7;" horiz-adv-x="1706" d="M854 369 Q916 369 961 324 Q1006 279 1006 217 Q1006 156 961 112 Q916 68 854 68 Q791 68 746.5 111 Q702 154 702 217 Q702 280 746.5 324.5 Q791 369 854 369 Z M254 711 L1452 711 L1452 512 L254 512 L254 711 Z M854 1155 Q916 1155 961 1110.5 Q1006 1066 1006 1004 Q1006 941 961.5 896.5 Q917 852 854 852 Q791 852 746.5 896.5 Q702 941 702 1004 Q702 1067 746.5 1111 Q791 1155 854 1155 Z " />
<glyph glyph-name="lozenge" unicode="&#x25ca;" horiz-adv-x="1012" d="M506 1409 L121 592 L506 -233 L891 592 L506 1409 Z M506 1653 L1006 592 L506 -477 L6 592 L506 1653 Z " />
<glyph glyph-name="ydieresis" unicode="&#xff;" horiz-adv-x="1053" d="M381 76 L-14 981 L315 981 L485 532 Q502 490 513 435.5 Q524 381 530 314 Q540 368 555 424 Q570 480 592 543 L741 981 L1067 981 L483 -446 L168 -446 L381 76 Z M583 1309 Q583 1360 622.5 1399 Q662 1438 714 1438 Q768 1438 805.5 1400 Q843 1362 843 1309 Q843 1252 806.5 1215 Q770 1178 714 1178 Q659 1178 621 1215.5 Q583 1253 583 1309 Z M209 1309 Q209 1360 248.5 1399 Q288 1438 340 1438 Q393 1438 431 1400 Q469 1362 469 1309 Q469 1252 432 1215 Q395 1178 340 1178 Q284 1178 246.5 1215.5 Q209 1253 209 1309 Z " />
<glyph glyph-name="Ydieresis" unicode="&#x178;" horiz-adv-x="1241" d="M465 0 L465 668 L-31 1464 L336 1464 L553 1063 Q569 1033 586 987 Q603 941 621 881 Q635 932 652.5 977 Q670 1022 692 1065 L907 1464 L1272 1464 L778 668 L778 0 L465 0 Z M678 1786 Q678 1837 717.5 1876 Q757 1915 809 1915 Q863 1915 900.5 1877 Q938 1839 938 1786 Q938 1729 901.5 1692 Q865 1655 809 1655 Q754 1655 716 1692.5 Q678 1730 678 1786 Z M304 1786 Q304 1837 343.5 1876 Q383 1915 435 1915 Q488 1915 526 1877 Q564 1839 564 1786 Q564 1729 527 1692 Q490 1655 435 1655 Q379 1655 341.5 1692.5 Q304 1730 304 1786 Z " />
<glyph glyph-name="fraction" unicode="&#x2215;" horiz-adv-x="342" d="M-342 -39 L532 1479 L682 1479 L-193 -39 L-342 -39 Z " />
<glyph glyph-name="currency" unicode="&#xa4;" horiz-adv-x="1241" d="M623 1161 Q510 1161 428 1079 Q346 997 346 885 Q346 771 427 690.5 Q508 610 623 610 Q736 610 817.5 690.5 Q899 771 899 885 Q899 997 817.5 1079 Q736 1161 623 1161 Z M172 1438 L377 1235 Q431 1274 491 1293.5 Q551 1313 621 1313 Q691 1313 752.5 1293.5 Q814 1274 868 1235 L1071 1438 L1176 1331 L973 1126 Q1011 1073 1030 1012.5 Q1049 952 1049 885 Q1049 818 1030 758 Q1011 698 973 643 L1176 438 L1071 334 L868 537 Q814 497 753 478 Q692 459 623 459 Q551 459 490.5 478 Q430 497 377 537 L172 334 L68 438 L270 643 Q232 697 213.5 756.5 Q195 816 195 885 Q195 952 213.5 1012.5 Q232 1073 270 1126 L68 1331 L172 1438 Z " />
<glyph glyph-name="guilsinglleft" unicode="&#x2039;" horiz-adv-x="639" d="M575 836 L297 485 L567 139 L418 33 L66 487 L422 942 L575 836 Z " />
<glyph glyph-name="guilsinglright" unicode="&#x203a;" horiz-adv-x="639" d="M66 836 L219 942 L575 487 L221 33 L72 139 L342 485 L66 836 Z " />
<glyph glyph-name="fi" unicode="&#xf001;" horiz-adv-x="1247" d="M788 1384 Q788 1452 837.5 1501 Q887 1550 954 1550 Q1024 1550 1073 1501.5 Q1122 1453 1122 1384 Q1122 1315 1072.5 1266 Q1023 1217 954 1217 Q887 1217 837.5 1267 Q788 1317 788 1384 Z M813 0 L813 981 L1098 981 L1098 0 L813 0 Z M174 0 L174 758 L47 758 L47 981 L174 981 L174 1202 Q174 1400 265 1485.5 Q356 1571 565 1571 Q588 1571 618.5 1566.5 Q649 1562 698 1550 L698 1323 Q672 1337 648 1343.5 Q624 1350 598 1350 Q523 1350 491 1310.5 Q459 1271 459 1174 L459 981 L641 981 L641 758 L459 758 L459 0 L174 0 Z " />
<glyph glyph-name="fl" unicode="&#xf002;" horiz-adv-x="1247" d="M813 0 L813 1550 L1098 1550 L1098 0 L813 0 Z M174 0 L174 758 L47 758 L47 981 L174 981 L174 1202 Q174 1400 265 1485.5 Q356 1571 565 1571 Q588 1571 618.5 1566.5 Q649 1562 698 1550 L698 1323 Q672 1337 648 1343.5 Q624 1350 598 1350 Q523 1350 491 1310.5 Q459 1271 459 1174 L459 981 L641 981 L641 758 L459 758 L459 0 L174 0 Z " />
<glyph glyph-name="daggerdbl" unicode="&#x2021;" horiz-adv-x="1176" d="M444 -446 L444 25 L66 25 L66 256 L444 256 L444 844 L66 844 L66 1077 L444 1077 L444 1464 L729 1464 L729 1077 L1110 1077 L1110 844 L729 844 L729 256 L1110 256 L1110 25 L729 25 L729 -446 L444 -446 Z " />
<glyph glyph-name="middot" unicode="&#xb7;" horiz-adv-x="629" d="M141 721 Q141 792 191.5 841.5 Q242 891 313 891 Q385 891 435 841.5 Q485 792 485 721 Q485 650 435 599.5 Q385 549 313 549 Q242 549 191.5 600 Q141 651 141 721 Z " />
<glyph glyph-name="quotesinglbase" unicode="&#x201a;" horiz-adv-x="629" d="M63 -332 L256 295 L563 295 L254 -332 L63 -332 Z " />
<glyph glyph-name="quotedblbase" unicode="&#x201e;" horiz-adv-x="1090" d="M539 -332 L729 295 L1038 295 L729 -332 L539 -332 Z M51 -332 L244 295 L551 295 L242 -332 L51 -332 Z " />
<glyph glyph-name="perthousand" unicode="&#x2030;" horiz-adv-x="2558" d="M741 1075 Q741 884 648.5 777 Q556 670 391 670 Q225 670 132 776.5 Q39 883 39 1075 Q39 1264 132.5 1371.5 Q226 1479 391 1479 Q558 1479 649.5 1373 Q741 1267 741 1075 Z M254 1075 Q254 950 290 881.5 Q326 813 391 813 Q459 813 493.5 879.5 Q528 946 528 1075 Q528 1202 493 1268.5 Q458 1335 391 1335 Q325 1335 289.5 1268 Q254 1201 254 1075 Z M510 -39 L360 -39 L1217 1479 L1366 1479 L510 -39 Z M1692 367 Q1692 176 1598.5 68.5 Q1505 -39 1339 -39 Q1173 -39 1080 68 Q987 175 987 367 Q987 556 1080.5 663 Q1174 770 1339 770 Q1507 770 1599.5 664.5 Q1692 559 1692 367 Z M1202 365 Q1202 240 1238 172 Q1274 104 1339 104 Q1407 104 1443 171.5 Q1479 239 1479 367 Q1479 493 1443.5 560 Q1408 627 1341 627 Q1275 627 1238.5 558.5 Q1202 490 1202 365 Z M2519 367 Q2519 175 2426.5 68 Q2334 -39 2169 -39 Q2003 -39 1910 68 Q1817 175 1817 367 Q1817 556 1910 663 Q2003 770 2169 770 Q2336 770 2427.5 664.5 Q2519 559 2519 367 Z M2030 365 Q2030 240 2065.5 172 Q2101 104 2167 104 Q2235 104 2270.5 171.5 Q2306 239 2306 367 Q2306 493 2270.5 560 Q2235 627 2169 627 Q2102 627 2066 558.5 Q2030 490 2030 365 Z " />
<glyph glyph-name="Acircumflex" unicode="&#xc2;" horiz-adv-x="1460" d="M922 557 L758 1030 Q751 1051 740 1102 Q729 1153 717 1227 Q704 1156 692 1099.5 Q680 1043 674 1024 L516 557 L922 557 Z M-10 0 L547 1464 L905 1464 L1470 0 L1114 0 L995 311 L428 311 L326 0 L-10 0 Z M416 1603 L612 1972 L850 1972 L1046 1603 L905 1603 L731 1820 L555 1603 L416 1603 Z " />
<glyph glyph-name="Ecircumflex" unicode="&#xca;" horiz-adv-x="1169" d="M164 0 L164 1464 L1026 1464 L1026 1200 L477 1200 L477 899 L1026 899 L1026 633 L477 633 L477 266 L1026 266 L1026 0 L164 0 Z M277 1603 L473 1972 L711 1972 L907 1603 L766 1603 L592 1820 L416 1603 L277 1603 Z " />
<glyph glyph-name="Aacute" unicode="&#xc1;" horiz-adv-x="1460" d="M922 557 L758 1030 Q751 1051 740 1102 Q729 1153 717 1227 Q704 1156 692 1099.5 Q680 1043 674 1024 L516 557 L922 557 Z M-10 0 L547 1464 L905 1464 L1470 0 L1114 0 L995 311 L428 311 L326 0 L-10 0 Z M1024 1972 L711 1603 L569 1603 L766 1972 L1024 1972 Z " />
<glyph glyph-name="Edieresis" unicode="&#xcb;" horiz-adv-x="1169" d="M164 0 L164 1464 L1026 1464 L1026 1200 L477 1200 L477 899 L1026 899 L1026 633 L477 633 L477 266 L1026 266 L1026 0 L164 0 Z M649 1786 Q649 1837 688.5 1876 Q728 1915 780 1915 Q834 1915 871.5 1877 Q909 1839 909 1786 Q909 1729 872.5 1692 Q836 1655 780 1655 Q725 1655 687 1692.5 Q649 1730 649 1786 Z M275 1786 Q275 1837 314.5 1876 Q354 1915 406 1915 Q459 1915 497 1877 Q535 1839 535 1786 Q535 1729 498 1692 Q461 1655 406 1655 Q350 1655 312.5 1692.5 Q275 1730 275 1786 Z " />
<glyph glyph-name="Egrave" unicode="&#xc8;" horiz-adv-x="1169" d="M164 0 L164 1464 L1026 1464 L1026 1200 L477 1200 L477 899 L1026 899 L1026 633 L477 633 L477 266 L1026 266 L1026 0 L164 0 Z M299 1972 L557 1972 L754 1603 L612 1603 L299 1972 Z " />
<glyph glyph-name="Iacute" unicode="&#xcd;" horiz-adv-x="653" d="M170 0 L170 1464 L483 1464 L483 0 L170 0 Z M621 1972 L308 1603 L166 1603 L363 1972 L621 1972 Z " />
<glyph glyph-name="Icircumflex" unicode="&#xce;" horiz-adv-x="653" d="M170 0 L170 1464 L483 1464 L483 0 L170 0 Z M13 1603 L209 1972 L447 1972 L643 1603 L502 1603 L328 1820 L152 1603 L13 1603 Z " />
<glyph glyph-name="Idieresis" unicode="&#xcf;" horiz-adv-x="653" d="M170 0 L170 1464 L483 1464 L483 0 L170 0 Z M385 1786 Q385 1837 424.5 1876 Q464 1915 516 1915 Q570 1915 607.5 1877 Q645 1839 645 1786 Q645 1729 608.5 1692 Q572 1655 516 1655 Q461 1655 423 1692.5 Q385 1730 385 1786 Z M11 1786 Q11 1837 50.5 1876 Q90 1915 142 1915 Q195 1915 233 1877 Q271 1839 271 1786 Q271 1729 234 1692 Q197 1655 142 1655 Q86 1655 48.5 1692.5 Q11 1730 11 1786 Z " />
<glyph glyph-name="Igrave" unicode="&#xcc;" horiz-adv-x="653" d="M170 0 L170 1464 L483 1464 L483 0 L170 0 Z M35 1972 L293 1972 L490 1603 L348 1603 L35 1972 Z " />
<glyph glyph-name="Oacute" unicode="&#xd3;" horiz-adv-x="1763" d="M1663 729 Q1663 572 1604.5 432 Q1546 292 1436 186 Q1322 77 1179 19 Q1036 -39 883 -39 Q749 -39 620.5 6.5 Q492 52 385 137 Q247 247 173.5 400 Q100 553 100 729 Q100 887 158 1025.5 Q216 1164 328 1272 Q438 1379 583.5 1438 Q729 1497 883 1497 Q1036 1497 1180.5 1438 Q1325 1379 1436 1272 Q1547 1164 1605 1025 Q1663 886 1663 729 Z M883 240 Q1082 240 1211.5 379.5 Q1341 519 1341 729 Q1341 937 1210 1079 Q1079 1221 883 1221 Q684 1221 553 1079.5 Q422 938 422 729 Q422 517 551 378.5 Q680 240 883 240 Z M1176 1972 L863 1603 L721 1603 L918 1972 L1176 1972 Z " />
<glyph glyph-name="Ocircumflex" unicode="&#xd4;" horiz-adv-x="1763" d="M1663 729 Q1663 572 1604.5 432 Q1546 292 1436 186 Q1322 77 1179 19 Q1036 -39 883 -39 Q749 -39 620.5 6.5 Q492 52 385 137 Q247 247 173.5 400 Q100 553 100 729 Q100 887 158 1025.5 Q216 1164 328 1272 Q438 1379 583.5 1438 Q729 1497 883 1497 Q1036 1497 1180.5 1438 Q1325 1379 1436 1272 Q1547 1164 1605 1025 Q1663 886 1663 729 Z M883 240 Q1082 240 1211.5 379.5 Q1341 519 1341 729 Q1341 937 1210 1079 Q1079 1221 883 1221 Q684 1221 553 1079.5 Q422 938 422 729 Q422 517 551 378.5 Q680 240 883 240 Z M568 1603 L764 1972 L1002 1972 L1198 1603 L1057 1603 L883 1820 L707 1603 L568 1603 Z " />
<glyph glyph-name="apple" unicode="&#xf000;" horiz-adv-x="1618" d="M836 1216 Q835 1222 834.5 1230 Q834 1238 834 1253 Q834 1377 929 1482.5 Q1024 1588 1165 1614 Q1166 1604 1166.5 1591 Q1167 1578 1167 1552 Q1167 1421 1063.5 1317.5 Q960 1214 860 1214 L852 1214 Q849 1214 844.5 1215 Q840 1216 836 1216 Z M1505 403 Q1391 156 1300 60.5 Q1209 -35 1096 -35 Q1046 -35 964.5 -2 Q883 31 842 31 Q797 31 711 -2 Q625 -35 584 -35 Q520 -35 455.5 9 Q391 53 326 141 Q224 281 168.5 436.5 Q113 592 113 737 Q113 956 238 1093.5 Q363 1231 561 1231 Q629 1231 716 1197 Q803 1163 840 1163 Q874 1163 961.5 1198 Q1049 1233 1114 1233 Q1224 1233 1312 1193 Q1400 1153 1473 1069 Q1371 1004 1321.5 923.5 Q1272 843 1272 741 Q1272 628 1332 541 Q1392 454 1505 403 Z " />
<glyph glyph-name="Ograve" unicode="&#xd2;" horiz-adv-x="1763" d="M1663 729 Q1663 572 1604.5 432 Q1546 292 1436 186 Q1322 77 1179 19 Q1036 -39 883 -39 Q749 -39 620.5 6.5 Q492 52 385 137 Q247 247 173.5 400 Q100 553 100 729 Q100 887 158 1025.5 Q216 1164 328 1272 Q438 1379 583.5 1438 Q729 1497 883 1497 Q1036 1497 1180.5 1438 Q1325 1379 1436 1272 Q1547 1164 1605 1025 Q1663 886 1663 729 Z M883 240 Q1082 240 1211.5 379.5 Q1341 519 1341 729 Q1341 937 1210 1079 Q1079 1221 883 1221 Q684 1221 553 1079.5 Q422 938 422 729 Q422 517 551 378.5 Q680 240 883 240 Z M590 1972 L848 1972 L1045 1603 L903 1603 L590 1972 Z " />
<glyph glyph-name="Uacute" unicode="&#xda;" horiz-adv-x="1583" d="M1423 1464 L1423 553 Q1423 255 1266 108 Q1109 -39 793 -39 Q472 -39 315 108 Q158 255 158 553 L158 1464 L469 1464 L469 602 Q469 421 549 329.5 Q629 238 788 238 Q948 238 1030 330 Q1112 422 1112 602 L1112 1464 L1423 1464 Z M1086 1972 L773 1603 L631 1603 L828 1972 L1086 1972 Z " />
<glyph glyph-name="Ucircumflex" unicode="&#xdb;" horiz-adv-x="1583" d="M1423 1464 L1423 553 Q1423 255 1266 108 Q1109 -39 793 -39 Q472 -39 315 108 Q158 255 158 553 L158 1464 L469 1464 L469 602 Q469 421 549 329.5 Q629 238 788 238 Q948 238 1030 330 Q1112 422 1112 602 L1112 1464 L1423 1464 Z M478 1603 L674 1972 L912 1972 L1108 1603 L967 1603 L793 1820 L617 1603 L478 1603 Z " />
<glyph glyph-name="Ugrave" unicode="&#xd9;" horiz-adv-x="1583" d="M1423 1464 L1423 553 Q1423 255 1266 108 Q1109 -39 793 -39 Q472 -39 315 108 Q158 255 158 553 L158 1464 L469 1464 L469 602 Q469 421 549 329.5 Q629 238 788 238 Q948 238 1030 330 Q1112 422 1112 602 L1112 1464 L1423 1464 Z M500 1972 L758 1972 L955 1603 L813 1603 L500 1972 Z " />
<glyph glyph-name="dotlessi" unicode="&#x131;" horiz-adv-x="584" d="M150 0 L150 981 L434 981 L434 0 L150 0 Z " />
<glyph glyph-name="circumflex" unicode="&#x2c6;" horiz-adv-x="1024" d="M197 1126 L393 1495 L631 1495 L827 1126 L686 1126 L512 1343 L336 1126 L197 1126 Z " />
<glyph glyph-name="tilde" unicode="&#x2dc;" horiz-adv-x="1024" d="M829 1446 Q801 1319 751 1261.5 Q701 1204 621 1204 Q600 1204 582 1206.5 Q564 1209 546 1215 L459 1241 Q438 1247 423 1249 Q408 1251 393 1251 Q359 1251 338 1232.5 Q317 1214 305 1174 L195 1174 Q221 1296 270.5 1352.5 Q320 1409 399 1409 Q417 1409 439 1405.5 Q461 1402 485 1395 L578 1370 Q590 1366 603.5 1364 Q617 1362 633 1362 Q666 1362 687 1382.5 Q708 1403 719 1446 L829 1446 Z " />
<glyph glyph-name="overscore" unicode="&#xaf;" horiz-adv-x="1024" d="M225 1229 L225 1384 L799 1384 L799 1229 L225 1229 Z " />
<glyph glyph-name="breve" unicode="&#x2d8;" horiz-adv-x="1024" d="M203 1462 L326 1462 Q332 1385 377 1349 Q422 1313 512 1313 Q603 1313 646.5 1348.5 Q690 1384 696 1462 L819 1462 Q807 1304 733.5 1231.5 Q660 1159 512 1159 Q364 1159 288.5 1233.5 Q213 1308 203 1462 Z " />
<glyph glyph-name="dotaccent" unicode="&#x2d9;" horiz-adv-x="1024" d="M377 1307 Q377 1360 418 1402 Q459 1444 512 1444 Q567 1444 608 1403 Q649 1362 649 1307 Q649 1249 610 1210 Q571 1171 512 1171 Q457 1171 417 1211 Q377 1251 377 1307 Z " />
<glyph glyph-name="ring" unicode="&#x2da;" horiz-adv-x="1024" d="M391 1372 Q391 1321 425.5 1286 Q460 1251 512 1251 Q563 1251 599 1286.5 Q635 1322 635 1372 Q635 1423 599 1459 Q563 1495 512 1495 Q461 1495 426 1459.5 Q391 1424 391 1372 Z M248 1372 Q248 1483 325 1560.5 Q402 1638 512 1638 Q623 1638 700.5 1560.5 Q778 1483 778 1372 Q778 1261 700.5 1183.5 Q623 1106 512 1106 Q401 1106 324.5 1183 Q248 1260 248 1372 Z " />
<glyph glyph-name="cedilla" unicode="&#xb8;" horiz-adv-x="1024" d="M238 -438 L238 -311 Q318 -332 385 -343 Q452 -354 496 -354 Q547 -354 571.5 -335.5 Q596 -317 596 -279 Q596 -242 568.5 -226.5 Q541 -211 475 -211 Q456 -211 443 -211.5 Q430 -212 418 -213 L418 0 L520 0 L520 -90 L535 -90 Q651 -90 710.5 -138.5 Q770 -187 770 -283 Q770 -382 703.5 -431.5 Q637 -481 504 -481 Q455 -481 385.5 -470 Q316 -459 238 -438 Z " />
<glyph glyph-name="hungarumlaut" unicode="&#x2dd;" horiz-adv-x="1024" d="M563 1126 L717 1495 L946 1495 L676 1126 L563 1126 Z M295 1126 L410 1495 L631 1495 L399 1126 L295 1126 Z " />
<glyph glyph-name="ogonek" unicode="&#x2db;" horiz-adv-x="1024" d="M627 0 Q565 -50 532.5 -102.5 Q500 -155 500 -205 Q500 -245 520 -265 Q540 -285 582 -285 L684 -285 L684 -459 L578 -459 Q460 -459 400 -412.5 Q340 -366 340 -274 Q340 -203 385 -138 Q430 -73 530 0 L627 0 Z " />
<glyph glyph-name="caron" unicode="&#x2c7;" horiz-adv-x="1024" d="M197 1495 L336 1495 L512 1278 L686 1495 L827 1495 L631 1126 L393 1126 L197 1495 Z " />
<glyph glyph-name="Lslash" unicode="&#x141;" horiz-adv-x="1026" d="M180 0 L180 512 L59 428 L-63 614 L180 786 L180 1464 L494 1464 L494 973 L700 1116 L823 928 L494 698 L494 266 L993 266 L993 0 L180 0 Z " />
<glyph glyph-name="lslash" unicode="&#x142;" horiz-adv-x="621" d="M168 0 L168 518 L72 449 L-35 604 L168 748 L168 1550 L453 1550 L453 934 L549 1004 L655 850 L453 705 L453 0 L168 0 Z " />
<glyph glyph-name="Scaron" unicode="&#x160;" horiz-adv-x="1147" d="M70 186 L244 383 Q277 302 350 255.5 Q423 209 514 209 Q624 209 688 261 Q752 313 752 401 Q752 505 539 608 Q470 641 430 662 Q238 762 164 857.5 Q90 953 90 1085 Q90 1266 233.5 1382.5 Q377 1499 606 1499 Q739 1499 835.5 1452.5 Q932 1406 1006 1307 L821 1130 Q788 1194 733.5 1225.5 Q679 1257 602 1257 Q509 1257 452 1210.5 Q395 1164 395 1090 Q395 974 621 878 Q666 859 690 848 Q876 763 965.5 656 Q1055 549 1055 412 Q1055 206 914.5 83.5 Q774 -39 537 -39 Q369 -39 249 19 Q129 77 70 186 Z M258 1972 L397 1972 L573 1755 L747 1972 L888 1972 L692 1603 L454 1603 L258 1972 Z " />
<glyph glyph-name="scaron" unicode="&#x161;" horiz-adv-x="934" d="M43 172 L262 285 Q273 228 321 195 Q369 162 440 162 Q510 162 550 187.5 Q590 213 590 258 Q590 329 448 377 Q404 392 378 402 Q205 467 138.5 533 Q72 599 72 696 Q72 840 185 929 Q298 1018 483 1018 Q615 1018 711.5 965 Q808 912 852 815 L643 711 Q626 766 584 794.5 Q542 823 479 823 Q416 823 377 797 Q338 771 338 729 Q338 656 532 593 Q555 586 567 582 Q728 529 796 458.5 Q864 388 864 279 Q864 133 751 47 Q638 -39 446 -39 Q294 -39 186.5 17.5 Q79 74 43 172 Z M152 1495 L291 1495 L467 1278 L641 1495 L782 1495 L586 1126 L348 1126 L152 1495 Z " />
<glyph glyph-name="Zcaron" unicode="&#x17d;" horiz-adv-x="1298" d="M1235 0 L6 0 L764 1214 L84 1214 L84 1464 L1266 1464 L508 252 L1235 252 L1235 0 Z M334 1972 L473 1972 L649 1755 L823 1972 L964 1972 L768 1603 L530 1603 L334 1972 Z " />
<glyph glyph-name="zcaron" unicode="&#x17e;" horiz-adv-x="985" d="M940 0 L0 0 L520 758 L63 758 L63 981 L952 981 L438 223 L940 223 L940 0 Z M179 1495 L318 1495 L494 1278 L668 1495 L809 1495 L613 1126 L375 1126 L179 1495 Z " />
<glyph glyph-name="brokenbar" unicode="&#xa6;" horiz-adv-x="1024" d="M410 408 L616 408 L616 -350 L410 -350 L410 408 Z M410 1432 L616 1432 L616 674 L410 674 L410 1432 Z " />
<glyph glyph-name="Eth" unicode="&#xd0;" horiz-adv-x="1563" d="M496 264 L670 264 Q916 264 1028.5 376 Q1141 488 1141 731 Q1141 970 1026 1084 Q911 1198 670 1198 L496 1198 L496 858 L819 858 L819 629 L496 629 L496 264 Z M182 0 L182 629 L0 629 L0 858 L182 858 L182 1464 L573 1464 Q811 1464 927 1440 Q1043 1416 1137 1360 Q1295 1265 1378.5 1103 Q1462 941 1462 729 Q1462 535 1392 384 Q1322 233 1188 135 Q1087 63 965 31.5 Q843 0 606 0 L496 0 L182 0 Z " />
<glyph glyph-name="eth" unicode="&#xf0;" horiz-adv-x="1276" d="M881 475 Q881 590 811 657.5 Q741 725 623 725 Q504 725 434.5 657.5 Q365 590 365 475 Q365 361 434.5 293 Q504 225 623 225 Q741 225 811 293 Q881 361 881 475 Z M813 897 Q758 980 697 1045 Q636 1110 565 1159 L231 999 L162 1126 L432 1253 Q396 1278 357 1300 Q318 1322 260 1350 L377 1546 Q444 1517 518.5 1473 Q593 1429 678 1368 L997 1524 L1073 1397 L809 1270 Q996 1093 1080.5 919 Q1165 745 1165 537 Q1165 263 1023 112 Q881 -39 625 -39 Q386 -39 231 105.5 Q76 250 76 467 Q76 675 220 819 Q364 963 573 963 Q642 963 701 946.5 Q760 930 813 897 Z " />
<glyph glyph-name="Yacute" unicode="&#xdd;" horiz-adv-x="1241" d="M465 0 L465 668 L-31 1464 L336 1464 L553 1063 Q569 1033 586 987 Q603 941 621 881 Q635 932 652.5 977 Q670 1022 692 1065 L907 1464 L1272 1464 L778 668 L778 0 L465 0 Z M914 1972 L601 1603 L459 1603 L656 1972 L914 1972 Z " />
<glyph glyph-name="yacute" unicode="&#xfd;" horiz-adv-x="1053" d="M381 76 L-14 981 L315 981 L485 532 Q502 490 513 435.5 Q524 381 530 314 Q540 368 555 424 Q570 480 592 543 L741 981 L1067 981 L483 -446 L168 -446 L381 76 Z M819 1495 L506 1126 L364 1126 L561 1495 L819 1495 Z " />
<glyph glyph-name="Thorn" unicode="&#xde;" horiz-adv-x="1139" d="M479 549 L524 549 Q652 549 710 603 Q768 657 768 774 Q768 882 710.5 930.5 Q653 979 524 979 L479 979 L479 549 Z M164 0 L164 1464 L479 1464 L479 1212 L524 1212 Q811 1212 949 1101 Q1087 990 1087 760 Q1087 548 948.5 427.5 Q810 307 565 307 L479 307 L479 0 L164 0 Z " />
<glyph glyph-name="thorn" unicode="&#xfe;" horiz-adv-x="1266" d="M399 492 Q399 359 464.5 285 Q530 211 647 211 Q765 211 830 284.5 Q895 358 895 492 Q895 625 828.5 701.5 Q762 778 645 778 Q532 778 465.5 701.5 Q399 625 399 492 Z M414 141 Q419 107 421.5 69 Q424 31 424 -39 L424 -446 L139 -446 L139 1550 L424 1550 L424 958 Q424 919 421 885.5 Q418 852 412 819 Q468 917 549.5 965.5 Q631 1014 739 1014 Q948 1014 1066 875.5 Q1184 737 1184 489 Q1184 250 1065 105.5 Q946 -39 752 -39 Q635 -39 553.5 4.5 Q472 48 414 141 Z " />
<glyph glyph-name="minus" unicode="&#x2212;" horiz-adv-x="1706" d="M254 713 L1452 713 L1452 510 L254 510 L254 713 Z " />
<glyph glyph-name="multiply" unicode="&#xd7;" horiz-adv-x="1706" d="M416 1202 L866 752 L1317 1202 L1458 1063 L1008 610 L1458 160 L1317 20 L866 471 L416 20 L276 160 L727 610 L276 1063 L416 1202 Z " />
<glyph glyph-name="onesuperior" unicode="&#xb9;" horiz-adv-x="829" d="M338 575 L338 1298 L143 1298 L225 1446 L532 1446 L532 575 L338 575 Z " />
<glyph glyph-name="twosuperior" unicode="&#xb2;" horiz-adv-x="829" d="M721 721 L721 575 L53 575 L395 985 Q467 1069 494.5 1117.5 Q522 1166 522 1204 Q522 1256 488.5 1285.5 Q455 1315 395 1315 Q341 1315 307.5 1277.5 Q274 1240 274 1178 L274 1174 L80 1174 L80 1188 Q80 1319 162.5 1390.5 Q245 1462 395 1462 Q551 1462 636 1398 Q721 1334 721 1219 Q721 1087 492 829 L486 822 L395 721 L721 721 Z " />
<glyph glyph-name="threesuperior" unicode="&#xb3;" horiz-adv-x="829" d="M70 807 L260 807 L260 805 Q260 757 299.5 727.5 Q339 698 403 698 Q476 698 515.5 731 Q555 764 555 825 Q555 889 514.5 921.5 Q474 954 393 954 L369 954 L369 1108 Q371 1108 379 1107 Q387 1106 391 1106 Q462 1106 498.5 1134 Q535 1162 535 1217 Q535 1263 502 1292 Q469 1321 416 1321 Q359 1321 327 1298 Q295 1275 289 1231 L104 1231 Q111 1342 193 1402 Q275 1462 422 1462 Q563 1462 645 1399 Q727 1336 727 1229 Q727 1155 682 1102 Q637 1049 565 1038 Q650 1021 700 960 Q750 899 750 813 Q750 692 656 622.5 Q562 553 399 553 Q249 553 159.5 621 Q70 689 70 801 L70 807 Z " />
<glyph glyph-name="onequarter" unicode="&#xbc;" horiz-adv-x="1925" d="M1606 0 L1606 158 L1161 158 L1161 233 L1606 827 L1776 827 L1776 274 L1872 274 L1872 158 L1776 158 L1776 0 L1606 0 Z M1608 274 L1608 557 Q1608 598 1610 618.5 Q1612 639 1616 657 Q1598 620 1582.5 593 Q1567 566 1550 545 L1352 274 L1608 274 Z M449 -39 L1323 1479 L1473 1479 L598 -39 L449 -39 Z M322 633 L322 1307 L137 1307 L215 1444 L508 1444 L508 633 L322 633 Z " />
<glyph glyph-name="onehalf" unicode="&#xbd;" horiz-adv-x="1925" d="M1821 135 L1821 0 L1184 0 L1511 381 Q1582 465 1607 508.5 Q1632 552 1632 586 Q1632 634 1599.5 662 Q1567 690 1511 690 Q1458 690 1426.5 655 Q1395 620 1395 561 L1395 559 L1208 559 L1208 571 Q1208 695 1287 761 Q1366 827 1511 827 Q1658 827 1739.5 767.5 Q1821 708 1821 600 Q1821 478 1606 241 L1595 229 L1511 135 L1821 135 Z M449 -39 L1323 1479 L1473 1479 L598 -39 L449 -39 Z M322 633 L322 1307 L137 1307 L215 1444 L508 1444 L508 633 L322 633 Z " />
<glyph glyph-name="threequarters" unicode="&#xbe;" horiz-adv-x="1923" d="M1606 0 L1606 158 L1161 158 L1161 233 L1606 827 L1776 827 L1776 274 L1872 274 L1872 158 L1776 158 L1776 0 L1606 0 Z M1608 274 L1608 557 Q1608 598 1610 618.5 Q1612 639 1616 657 Q1598 620 1582.5 593 Q1567 566 1550 545 L1352 274 L1608 274 Z M449 -39 L1323 1479 L1473 1479 L598 -39 L449 -39 Z M68 850 L250 850 L250 848 Q250 803 287 775.5 Q324 748 385 748 Q455 748 492.5 778.5 Q530 809 530 866 Q530 926 491 956.5 Q452 987 375 987 Q372 987 364 986 Q356 985 350 985 L350 1128 L373 1128 Q441 1128 475.5 1154 Q510 1180 510 1231 Q510 1275 478.5 1302 Q447 1329 395 1329 Q342 1329 311.5 1307 Q281 1285 274 1243 L100 1243 Q107 1348 185 1404 Q263 1460 403 1460 Q538 1460 616 1401.5 Q694 1343 694 1243 Q694 1174 651.5 1125 Q609 1076 539 1065 Q621 1048 669 991.5 Q717 935 717 854 Q717 741 626.5 675.5 Q536 610 381 610 Q240 610 154 674 Q68 738 68 842 L68 850 Z " />
<glyph glyph-name="franc" unicode="&#x20a3;" horiz-adv-x="1937" d="M164 0 L164 1464 L1026 1464 L1026 1200 L477 1200 L477 899 L1026 899 L1026 633 L477 633 L477 0 L164 0 Z M1518 729 Q1561 872 1641.5 943 Q1722 1014 1841 1014 Q1868 1014 1930 1004 Q1942 1002 1948 1001 L1905 695 Q1873 708 1840.5 714.5 Q1808 721 1772 721 Q1642 721 1585 654.5 Q1528 588 1528 432 L1528 0 L1243 0 L1243 981 L1524 981 L1518 729 Z " />
<glyph glyph-name="Gbreve" unicode="&#x11e;" horiz-adv-x="1645" d="M891 772 L1558 772 Q1560 759 1560.5 744 Q1561 729 1561 698 Q1561 369 1373 165 Q1185 -39 887 -39 Q546 -39 325 178.5 Q104 396 104 731 Q104 1063 326 1280 Q548 1497 887 1497 Q1066 1497 1215 1422 Q1364 1347 1481 1198 L1270 1042 Q1191 1140 1104 1183.5 Q1017 1227 903 1227 Q686 1227 556 1092 Q426 957 426 731 Q426 509 556.5 372.5 Q687 236 897 236 Q1051 236 1147 308.5 Q1243 381 1243 498 L1243 514 L891 514 L891 772 Z M514 1939 L637 1939 Q643 1862 688 1826 Q733 1790 823 1790 Q914 1790 957.5 1825.5 Q1001 1861 1007 1939 L1130 1939 Q1118 1781 1044.5 1708.5 Q971 1636 823 1636 Q675 1636 599.5 1710.5 Q524 1785 514 1939 Z " />
<glyph glyph-name="gbreve" unicode="&#x11f;" horiz-adv-x="1262" d="M1120 16 Q1120 -139 1101.5 -202 Q1083 -265 1038 -311 Q974 -380 874 -413 Q774 -446 631 -446 Q392 -446 268 -370 Q144 -294 133 -139 L446 -139 Q453 -196 498 -223 Q543 -250 631 -250 Q747 -250 798.5 -190 Q850 -130 850 10 L850 150 Q793 59 712.5 15 Q632 -29 522 -29 Q320 -29 199 112.5 Q78 254 78 494 Q78 738 196 876 Q314 1014 522 1014 Q629 1014 712.5 964.5 Q796 915 852 819 L852 981 L1120 981 L1120 16 Z M862 492 Q862 622 796 697 Q730 772 616 772 Q499 772 433 697.5 Q367 623 367 492 Q367 361 432 288 Q497 215 614 215 Q731 215 796.5 288 Q862 361 862 492 Z M322 1462 L445 1462 Q451 1385 496 1349 Q541 1313 631 1313 Q722 1313 765.5 1348.5 Q809 1384 815 1462 L938 1462 Q926 1304 852.5 1231.5 Q779 1159 631 1159 Q483 1159 407.5 1233.5 Q332 1308 322 1462 Z " />
<glyph glyph-name="Idot" unicode="&#x130;" horiz-adv-x="653" d="M170 0 L170 1464 L483 1464 L483 0 L170 0 Z M193 1784 Q193 1837 234 1879 Q275 1921 328 1921 Q383 1921 424 1880 Q465 1839 465 1784 Q465 1726 426 1687 Q387 1648 328 1648 Q273 1648 233 1688 Q193 1728 193 1784 Z " />
<glyph glyph-name="Scedilla" unicode="&#x15e;" horiz-adv-x="1147" d="M70 186 L244 383 Q277 302 350 255.5 Q423 209 514 209 Q624 209 688 261 Q752 313 752 401 Q752 505 539 608 Q470 641 430 662 Q238 762 164 857.5 Q90 953 90 1085 Q90 1266 233.5 1382.5 Q377 1499 606 1499 Q739 1499 835.5 1452.5 Q932 1406 1006 1307 L821 1130 Q788 1194 733.5 1225.5 Q679 1257 602 1257 Q509 1257 452 1210.5 Q395 1164 395 1090 Q395 974 621 878 Q666 859 690 848 Q876 763 965.5 656 Q1055 549 1055 412 Q1055 206 914.5 83.5 Q774 -39 537 -39 Q369 -39 249 19 Q129 77 70 186 Z M299 -438 L299 -311 Q379 -332 446 -343 Q513 -354 557 -354 Q608 -354 632.5 -335.5 Q657 -317 657 -279 Q657 -242 629.5 -226.5 Q602 -211 536 -211 Q517 -211 504 -211.5 Q491 -212 479 -213 L479 0 L581 0 L581 -90 L596 -90 Q712 -90 771.5 -138.5 Q831 -187 831 -283 Q831 -382 764.5 -431.5 Q698 -481 565 -481 Q516 -481 446.5 -470 Q377 -459 299 -438 Z " />
<glyph glyph-name="scedilla" unicode="&#x15f;" horiz-adv-x="934" d="M43 172 L262 285 Q273 228 321 195 Q369 162 440 162 Q510 162 550 187.5 Q590 213 590 258 Q590 329 448 377 Q404 392 378 402 Q205 467 138.5 533 Q72 599 72 696 Q72 840 185 929 Q298 1018 483 1018 Q615 1018 711.5 965 Q808 912 852 815 L643 711 Q626 766 584 794.5 Q542 823 479 823 Q416 823 377 797 Q338 771 338 729 Q338 656 532 593 Q555 586 567 582 Q728 529 796 458.5 Q864 388 864 279 Q864 133 751 47 Q638 -39 446 -39 Q294 -39 186.5 17.5 Q79 74 43 172 Z M193 -438 L193 -311 Q273 -332 340 -343 Q407 -354 451 -354 Q502 -354 526.5 -335.5 Q551 -317 551 -279 Q551 -242 523.5 -226.5 Q496 -211 430 -211 Q411 -211 398 -211.5 Q385 -212 373 -213 L373 0 L475 0 L475 -90 L490 -90 Q606 -90 665.5 -138.5 Q725 -187 725 -283 Q725 -382 658.5 -431.5 Q592 -481 459 -481 Q410 -481 340.5 -470 Q271 -459 193 -438 Z " />
<glyph glyph-name="Cacute" unicode="&#x106;" horiz-adv-x="1470" d="M1343 1083 Q1248 1168 1148 1207.5 Q1048 1247 934 1247 Q700 1247 561 1107 Q422 967 422 731 Q422 500 551 364.5 Q680 229 903 229 Q1030 229 1139 271.5 Q1248 314 1341 399 L1339 78 Q1239 19 1129.5 -10 Q1020 -39 899 -39 Q549 -39 324.5 178.5 Q100 396 100 731 Q100 1065 325 1282 Q550 1499 905 1499 Q1024 1499 1135 1474 Q1246 1449 1354 1397 L1343 1083 Z M1182 1972 L869 1603 L727 1603 L924 1972 L1182 1972 Z " />
<glyph glyph-name="cacute" unicode="&#x107;" horiz-adv-x="938" d="M862 29 Q804 -6 740 -22.5 Q676 -39 600 -39 Q368 -39 222 108.5 Q76 256 76 492 Q76 723 223 868.5 Q370 1014 604 1014 Q682 1014 744 999 Q806 984 862 952 L860 666 Q815 712 756 737 Q697 762 631 762 Q511 762 439 688.5 Q367 615 367 494 Q367 370 440.5 296.5 Q514 223 639 223 Q708 223 761.5 248 Q815 273 860 326 L862 29 Z M866 1495 L553 1126 L411 1126 L608 1495 L866 1495 Z " />
<glyph glyph-name="Ccaron" unicode="&#x10c;" horiz-adv-x="1470" d="M1343 1083 Q1248 1168 1148 1207.5 Q1048 1247 934 1247 Q700 1247 561 1107 Q422 967 422 731 Q422 500 551 364.5 Q680 229 903 229 Q1030 229 1139 271.5 Q1248 314 1341 399 L1339 78 Q1239 19 1129.5 -10 Q1020 -39 899 -39 Q549 -39 324.5 178.5 Q100 396 100 731 Q100 1065 325 1282 Q550 1499 905 1499 Q1024 1499 1135 1474 Q1246 1449 1354 1397 L1343 1083 Z M574 1972 L713 1972 L889 1755 L1063 1972 L1204 1972 L1008 1603 L770 1603 L574 1972 Z " />
<glyph glyph-name="ccaron" unicode="&#x10d;" horiz-adv-x="938" d="M862 29 Q804 -6 740 -22.5 Q676 -39 600 -39 Q368 -39 222 108.5 Q76 256 76 492 Q76 723 223 868.5 Q370 1014 604 1014 Q682 1014 744 999 Q806 984 862 952 L860 666 Q815 712 756 737 Q697 762 631 762 Q511 762 439 688.5 Q367 615 367 494 Q367 370 440.5 296.5 Q514 223 639 223 Q708 223 761.5 248 Q815 273 860 326 L862 29 Z M258 1495 L397 1495 L573 1278 L747 1495 L888 1495 L692 1126 L454 1126 L258 1495 Z " />
<glyph glyph-name="dslash" unicode="&#x111;" horiz-adv-x="1280" d="M862 805 Q857 836 854.5 872.5 Q852 909 852 979 L852 1161 L518 1161 L518 1337 L852 1337 L852 1550 L1122 1550 L1122 1337 L1280 1337 L1280 1161 L1122 1161 L1122 0 L846 0 L850 141 Q792 48 710.5 4.5 Q629 -39 512 -39 Q320 -39 199 104.5 Q78 248 78 477 Q78 725 195 863 Q312 1001 522 1001 Q627 1001 709 954 Q791 907 862 805 Z M367 485 Q367 359 433.5 285 Q500 211 614 211 Q730 211 796 284.5 Q862 358 862 485 Q862 615 795.5 691.5 Q729 768 616 768 Q501 768 434 692 Q367 616 367 485 Z " />
<glyph glyph-name="sfthyphen" unicode="&#xad;" horiz-adv-x="854" d="M147 362 L147 614 L707 614 L707 362 L147 362 Z " />
<glyph glyph-name="periodcentered" unicode="&#x2219;" horiz-adv-x="629" d="M141 721 Q141 792 191.5 841.5 Q242 891 313 891 Q385 891 435 841.5 Q485 792 485 721 Q485 650 435 599.5 Q385 549 313 549 Q242 549 191.5 600 Q141 651 141 721 Z " />
</font>
</svg>
